<svg xmlns="http://www.w3.org/2000/svg" xmlns:xlink="http://www.w3.org/1999/xlink" version="1.1" x="0px" y="0px" viewBox="0 0 90 112.5" enable-background="new 0 0 90 90" xml:space="preserve"><path d="M26.819,3.437c-0.396-0.016-0.647,0.199-0.824,0.699l-0.547,2.473c-0.323,0.921-0.135,1.495,0.969,1.896  c3.369,1.224,9.235,2.489,18.568,2.489c9.328,0,15.192-1.265,18.561-2.489c1.109-0.401,1.297-0.975,0.975-1.896L63.97,4.136  c-0.177-0.5-0.423-0.715-0.823-0.699c-0.235,0.011-0.527,0.104-0.885,0.265c-3.005,1.36-7.896,2.589-17.276,2.589  c-9.381,0-14.276-1.229-17.276-2.589C27.35,3.541,27.058,3.448,26.819,3.437z"/><path d="M25.147,9.896c0.979,0.448,2.181,0.885,3.624,1.281l-1.015,8.875c-0.333,2.912-2,4.557-4.313,4.787L25.147,9.896z"/><path d="M64.803,9.901l1.703,14.937c-2.301-0.235-3.963-1.885-4.296-4.787l-1.011-8.875C62.631,10.781,63.829,10.349,64.803,9.901z"/><path d="M30.642,11.631c3.333,0.733,7.724,1.249,13.385,1.307l-0.011,12.76c0,1.167,1.333,1.167,1.38,0l0.547-12.76  c0.985-0.011,1.959-0.02,2.865-0.057l-0.068,12.407c-0.016,2.989-1.552,4.797-3.88,5.276c-0.672,0.135-0.808,0.672-0.901,1.073  L31.454,86.588l-14.583-3.156l6.353-56.656c3.323-0.192,5.995-2.735,6.428-6.511L30.642,11.631z"/><path d="M59.323,11.631l0.991,8.635c0.432,3.771,3.099,6.308,6.411,6.505l6.36,56.661l-14.589,3.156L46.47,33.683  c-0.407-1.776,0.353-1.683,1.473-2.485c1.709-1.223,2.699-3.385,2.709-5.905l0.072-12.527  C54.153,12.541,57.001,12.145,59.323,11.631z"/><text x="0" y="105" fill="#000000" font-size="5px" font-weight="bold" font-family="'Helvetica Neue', Helvetica, Arial-Unicode, Arial, Sans-serif"></text><text x="0" y="110" fill="#000000" font-size="5px" font-weight="bold" font-family="'Helvetica Neue', Helvetica, Arial-Unicode, Arial, Sans-serif"></text></svg>