<svg version="1.1" id="Layer_1" xmlns="http://www.w3.org/2000/svg" xmlns:xlink="http://www.w3.org/1999/xlink" x="0px" y="0px"
	 width="100%" viewBox="0 0 1600 1200" enable-background="new 0 0 1600 1200" xml:space="preserve">
<path fill="#000000" opacity="1.000000" stroke="none" 
	d="
M1.000000,383.000000 
	C1.000000,255.333359 1.000000,128.166718 1.000000,1.000051 
	C534.333191,1.000034 1067.666382,1.000034 1600.999756,1.000017 
	C1600.999756,400.999786 1600.999756,800.999573 1600.999878,1200.999512 
	C1067.666992,1200.999756 534.333923,1200.999756 1.000428,1200.999878 
	C1.000000,928.500000 1.000000,656.000000 1.000000,383.000000 
M852.003662,787.578796 
	C853.067017,799.971802 854.051758,812.372192 855.213196,824.755981 
	C856.730225,840.930847 858.477295,857.084473 859.958740,873.262451 
	C861.440979,889.448975 862.597473,905.665649 864.113647,921.848755 
	C866.294189,945.123291 868.709167,968.375854 870.951233,991.644836 
	C872.668762,1009.469971 874.278931,1027.305420 875.927185,1045.137207 
	C877.941895,1066.933228 879.956665,1088.729248 881.952820,1110.526978 
	C883.964111,1132.489258 885.940735,1154.454712 887.956543,1176.416626 
	C888.811707,1185.733032 889.104065,1185.989746 898.434692,1185.990479 
	C972.095642,1185.995483 1045.756592,1185.994995 1119.417480,1185.991211 
	C1128.136597,1185.990845 1129.662842,1184.043457 1128.967163,1175.191772 
	C1128.122559,1164.441406 1127.536499,1153.667725 1127.019043,1142.895508 
	C1126.269897,1127.300781 1125.662109,1111.699219 1125.030884,1096.099121 
	C1124.003174,1070.701416 1123.018188,1045.302124 1121.990479,1019.904541 
	C1121.359131,1004.304443 1120.662109,988.706909 1120.031006,973.106750 
	C1119.003418,947.709106 1118.018066,922.309875 1116.990601,896.912231 
	C1116.359497,881.312012 1115.662720,865.714539 1115.031372,850.114380 
	C1114.003784,824.716736 1113.018311,799.317505 1111.990723,773.919861 
	C1111.359497,758.319702 1110.662842,742.722168 1110.031616,727.122009 
	C1109.004028,701.724365 1108.018555,676.325134 1106.990967,650.927490 
	C1106.359863,635.327332 1105.662964,619.729797 1105.031738,604.129700 
	C1104.004150,578.732056 1103.013916,553.333008 1101.992554,527.935120 
	C1101.351929,512.002075 1100.675537,496.070435 1100.028931,480.137634 
	C1099.011597,455.072968 1098.010864,430.007629 1096.993652,404.942932 
	C1096.346924,389.010132 1095.672974,373.078430 1095.030151,357.145447 
	C1094.340332,340.047180 1093.687744,322.947418 1092.990845,305.849426 
	C1092.355103,290.249451 1091.660767,274.651855 1091.029785,259.051697 
	C1090.002197,233.654068 1089.018066,208.254700 1087.990479,182.857071 
	C1087.359497,167.256866 1086.588135,151.661804 1086.047485,136.058609 
	C1085.281738,113.963249 1084.632446,91.863594 1084.018433,69.763412 
	C1083.851929,63.768478 1084.246704,57.750580 1083.907715,51.770191 
	C1083.647339,47.174248 1083.614380,42.169201 1081.751465,38.146736 
	C1078.375366,30.856850 1071.798584,27.073833 1063.676025,27.052139 
	C1026.012573,26.951536 988.348694,27.005613 950.684998,27.008690 
	C948.024597,27.008907 945.238403,27.401100 944.020325,24.067902 
	C942.115906,18.856701 937.810242,17.027943 932.801697,16.180889 
	C924.393433,14.758874 915.656799,17.412899 913.377869,22.938231 
	C911.896545,26.529848 909.763794,27.046001 906.492920,27.043575 
	C838.831543,26.993397 771.170166,26.990290 703.508850,27.054943 
	C700.376648,27.057936 698.565491,26.279491 696.917053,23.262484 
	C691.518005,13.381285 672.200928,12.896229 667.184875,22.654444 
	C665.143738,26.625250 662.778992,27.068800 659.071655,27.060818 
	C618.908325,26.974340 578.744690,27.005281 538.581177,27.007790 
	C525.013916,27.008636 518.244019,33.983128 517.960022,47.534481 
	C517.475769,70.636650 516.808228,93.736481 516.012329,116.830223 
	C515.131104,142.399673 514.034973,167.961807 513.002136,193.525925 
	C512.378601,208.959717 511.671570,224.390152 511.047974,239.823944 
	C510.015106,265.388000 509.034912,290.954224 508.002136,316.518280 
	C507.378632,331.952087 506.671661,347.382507 506.048126,362.816315 
	C505.015289,388.380371 504.034973,413.946594 503.002106,439.510651 
	C502.378540,454.944427 501.673584,470.374939 501.048859,485.808655 
	C500.343323,503.239655 499.705994,520.673401 499.003113,538.104492 
	C498.374084,553.704773 497.682648,569.302490 497.043945,584.902405 
	C496.350708,601.833923 495.697235,618.766968 495.006836,635.698608 
	C494.363892,651.465027 493.662415,667.229065 493.046234,682.996460 
	C492.332489,701.260437 491.725403,719.528625 490.993744,737.791809 
	C490.408752,752.393799 489.652924,766.989014 489.067841,781.591003 
	C488.010132,807.987427 487.052917,834.387817 485.995270,860.784241 
	C485.410217,875.386292 484.653442,889.981384 484.068359,904.583435 
	C483.010651,930.979858 482.052917,957.380249 480.995239,983.776672 
	C480.410156,998.378662 479.658569,1012.973999 479.067810,1027.575806 
	C478.013245,1053.639038 476.971222,1079.702881 476.029205,1105.770508 
	C475.560791,1118.731567 475.468903,1131.707031 474.939941,1144.665039 
	C474.513702,1155.106689 473.699982,1165.532837 473.033752,1175.964355 
	C472.494751,1184.403687 473.936523,1185.989990 482.353241,1185.990601 
	C556.180786,1185.995239 630.008362,1185.996582 703.835938,1185.973877 
	C705.820068,1185.973267 708.051819,1186.201172 709.718872,1185.394165 
	C711.402466,1184.578979 713.542847,1182.726929 713.731873,1181.122559 
	C715.070740,1169.761719 715.988953,1158.350220 716.983765,1146.949829 
	C718.079773,1134.390747 719.058105,1121.821045 720.190979,1109.265381 
	C721.397766,1095.891724 722.746155,1082.531006 723.992859,1069.160767 
	C724.778259,1060.736816 725.449402,1052.302002 726.245300,1043.879028 
	C727.461548,1031.006470 728.794250,1018.144714 729.978882,1005.269287 
	C731.118591,992.880920 732.057800,980.473877 733.221069,968.087891 
	C734.740173,951.912964 736.455811,935.756409 737.968140,919.580872 
	C739.126160,907.194519 740.018555,894.783325 741.175598,882.396851 
	C742.702026,866.055847 744.444275,849.734924 745.956238,833.392639 
	C747.117615,820.839905 747.967163,808.258301 749.134399,795.706177 
	C750.654114,779.364502 752.443787,763.047913 753.945312,746.704651 
	C755.432373,730.518555 756.585571,714.301453 758.101807,698.118286 
	C760.282349,674.843689 762.697510,651.591187 764.939575,628.322205 
	C766.657104,610.497070 768.266968,592.661560 769.915161,574.829773 
	C771.929871,553.033691 773.933350,531.236633 775.944336,509.440186 
	C777.940002,487.809692 780.006897,466.185516 781.916504,444.547424 
	C783.709900,424.225494 785.359802,403.890717 787.021973,383.557434 
	C787.352051,379.519897 788.560730,376.451416 793.327881,376.383026 
	C798.071228,376.315033 802.873901,375.699402 807.542480,376.246399 
	C813.974609,377.000061 814.698730,378.378845 815.023376,384.907928 
	C815.303589,390.543396 815.692322,396.178223 816.221313,401.795624 
	C817.418152,414.503479 818.806824,427.193451 819.975891,439.903687 
	C821.130554,452.457245 822.012268,465.036072 823.192932,477.586975 
	C824.698975,493.596527 826.480896,509.580292 827.962891,525.591919 
	C829.155273,538.475220 829.954529,551.395020 831.153076,564.277710 
	C832.642578,580.288757 834.482422,596.267334 835.951477,612.280151 
	C837.466858,628.797119 838.582947,645.350830 840.118408,661.865723 
	C842.282471,685.141785 844.720886,708.392212 846.949219,731.662476 
	C848.703796,749.985535 850.318115,768.322144 852.003662,787.578796 
z"/>
<path fill="#2A3134" opacity="1.000000" stroke="none" 
	d="
M851.999207,787.115723 
	C850.318115,768.322144 848.703796,749.985535 846.949219,731.662476 
	C844.720886,708.392212 842.282471,685.141785 840.118408,661.865723 
	C838.582947,645.350830 837.466858,628.797119 835.951477,612.280151 
	C834.482422,596.267334 832.642578,580.288757 831.153076,564.277710 
	C829.954529,551.395020 829.155273,538.475220 827.962891,525.591919 
	C826.480896,509.580292 824.698975,493.596527 823.192932,477.586975 
	C822.012268,465.036072 821.130554,452.457245 819.975891,439.903687 
	C818.806824,427.193451 817.418152,414.503479 816.221313,401.795624 
	C815.692322,396.178223 815.303589,390.543396 815.023376,384.907928 
	C814.698730,378.378845 813.974609,377.000061 807.542480,376.246399 
	C802.873901,375.699402 798.071228,376.315033 793.327881,376.383026 
	C788.560730,376.451416 787.352051,379.519897 787.021973,383.557434 
	C785.359802,403.890717 783.709900,424.225494 781.916504,444.547424 
	C780.006897,466.185516 777.940002,487.809692 775.944336,509.440186 
	C773.933350,531.236633 771.929871,553.033691 769.915161,574.829773 
	C768.266968,592.661560 766.657104,610.497070 764.939575,628.322205 
	C762.697510,651.591187 760.282349,674.843689 758.101807,698.118286 
	C756.585571,714.301453 755.432373,730.518555 753.945312,746.704651 
	C752.443787,763.047913 750.654114,779.364502 749.134399,795.706177 
	C747.967163,808.258301 747.117615,820.839905 745.956238,833.392639 
	C744.444275,849.734924 742.702026,866.055847 741.175598,882.396851 
	C740.018555,894.783325 739.126160,907.194519 737.968140,919.580872 
	C736.455811,935.756409 734.740173,951.912964 733.221069,968.087891 
	C732.057800,980.473877 731.118591,992.880920 729.978882,1005.269287 
	C728.794250,1018.144714 727.461548,1031.006470 726.245300,1043.879028 
	C725.449402,1052.302002 724.778259,1060.736816 723.992859,1069.160767 
	C722.746155,1082.531006 721.397766,1095.891724 720.190979,1109.265381 
	C719.058105,1121.821045 718.079773,1134.390747 716.983765,1146.949829 
	C715.988953,1158.350220 715.070740,1169.761719 713.731873,1181.122559 
	C713.542847,1182.726929 711.402466,1184.578979 709.718872,1185.394165 
	C708.051819,1186.201172 705.820068,1185.973267 703.835938,1185.973877 
	C630.008362,1185.996582 556.180786,1185.995239 482.353241,1185.990601 
	C473.936523,1185.989990 472.494751,1184.403687 473.033752,1175.964355 
	C473.699982,1165.532837 474.513702,1155.106689 474.939941,1144.665039 
	C475.468903,1131.707031 475.560791,1118.731567 476.029205,1105.770508 
	C476.971222,1079.702881 478.013245,1053.639038 479.067810,1027.575806 
	C479.658569,1012.973999 480.410156,998.378662 480.995239,983.776672 
	C482.052917,957.380249 483.010651,930.979858 484.068359,904.583435 
	C484.653442,889.981384 485.410217,875.386292 485.995270,860.784241 
	C487.052917,834.387817 488.010132,807.987427 489.067841,781.591003 
	C489.652924,766.989014 490.408752,752.393799 490.993744,737.791809 
	C491.725403,719.528625 492.332489,701.260437 493.046234,682.996460 
	C493.662415,667.229065 494.363892,651.465027 495.006836,635.698608 
	C495.697235,618.766968 496.350708,601.833923 497.043945,584.902405 
	C497.682648,569.302490 498.374084,553.704773 499.003113,538.104492 
	C499.705994,520.673401 500.343323,503.239655 501.048859,485.808655 
	C501.673584,470.374939 502.378540,454.944427 503.002106,439.510651 
	C504.034973,413.946594 505.015289,388.380371 506.048126,362.816315 
	C506.671661,347.382507 507.378632,331.952087 508.002136,316.518280 
	C509.034912,290.954224 510.015106,265.388000 511.047974,239.823944 
	C511.671570,224.390152 512.378601,208.959717 513.002136,193.525925 
	C514.034973,167.961807 515.131104,142.399673 516.012329,116.830223 
	C516.808228,93.736481 517.475769,70.636650 517.960022,47.534481 
	C518.244019,33.983128 525.013916,27.008636 538.581177,27.007790 
	C578.744690,27.005281 618.908325,26.974340 659.071655,27.060818 
	C662.778992,27.068800 665.143738,26.625250 667.184875,22.654444 
	C672.200928,12.896229 691.518005,13.381285 696.917053,23.262484 
	C698.565491,26.279491 700.376648,27.057936 703.508850,27.054943 
	C771.170166,26.990290 838.831543,26.993397 906.492920,27.043575 
	C909.763794,27.046001 911.896545,26.529848 913.377869,22.938231 
	C915.656799,17.412899 924.393433,14.758874 932.801697,16.180889 
	C937.810242,17.027943 942.115906,18.856701 944.020325,24.067902 
	C945.238403,27.401100 948.024597,27.008907 950.684998,27.008690 
	C988.348694,27.005613 1026.012573,26.951536 1063.676025,27.052139 
	C1071.798584,27.073833 1078.375366,30.856850 1081.751465,38.146736 
	C1083.614380,42.169201 1083.647339,47.174248 1083.907715,51.770191 
	C1084.246704,57.750580 1083.851929,63.768478 1084.018433,69.763412 
	C1084.632446,91.863594 1085.281738,113.963249 1086.047485,136.058609 
	C1086.588135,151.661804 1087.359497,167.256866 1087.990479,182.857071 
	C1089.018066,208.254700 1090.002197,233.654068 1091.029785,259.051697 
	C1091.660767,274.651855 1092.355103,290.249451 1092.990845,305.849426 
	C1093.687744,322.947418 1094.340332,340.047180 1095.030151,357.145447 
	C1095.672974,373.078430 1096.346924,389.010132 1096.993652,404.942932 
	C1098.010864,430.007629 1099.011597,455.072968 1100.028931,480.137634 
	C1100.675537,496.070435 1101.351929,512.002075 1101.992554,527.935120 
	C1103.013916,553.333008 1104.004150,578.732056 1105.031738,604.129700 
	C1105.662964,619.729797 1106.359863,635.327332 1106.990967,650.927490 
	C1108.018555,676.325134 1109.004028,701.724365 1110.031616,727.122009 
	C1110.662842,742.722168 1111.359497,758.319702 1111.990723,773.919861 
	C1113.018311,799.317505 1114.003784,824.716736 1115.031372,850.114380 
	C1115.662720,865.714539 1116.359497,881.312012 1116.990601,896.912231 
	C1118.018066,922.309875 1119.003418,947.709106 1120.031006,973.106750 
	C1120.662109,988.706909 1121.359131,1004.304443 1121.990479,1019.904541 
	C1123.018188,1045.302124 1124.003174,1070.701416 1125.030884,1096.099121 
	C1125.662109,1111.699219 1126.269897,1127.300781 1127.019043,1142.895508 
	C1127.536499,1153.667725 1128.122559,1164.441406 1128.967163,1175.191772 
	C1129.662842,1184.043457 1128.136597,1185.990845 1119.417480,1185.991211 
	C1045.756592,1185.994995 972.095642,1185.995483 898.434692,1185.990479 
	C889.104065,1185.989746 888.811707,1185.733032 887.956543,1176.416626 
	C885.940735,1154.454712 883.964111,1132.489258 881.952820,1110.526978 
	C879.956665,1088.729248 877.941895,1066.933228 875.927185,1045.137207 
	C874.278931,1027.305420 872.668762,1009.469971 870.951233,991.644836 
	C868.709167,968.375854 866.294189,945.123291 864.113647,921.848755 
	C862.597473,905.665649 861.440979,889.448975 859.958740,873.262451 
	C858.477295,857.084473 856.730225,840.930847 855.213196,824.755981 
	C854.051758,812.372192 853.067017,799.971802 851.999207,787.115723 
M572.500000,82.142021 
	C558.667847,82.142624 544.834778,82.227791 531.004089,82.085480 
	C527.464050,82.049057 526.064941,83.014931 525.923706,86.836296 
	C524.791748,117.455246 523.416077,148.065079 522.165527,178.679764 
	C520.445923,220.777740 518.779419,262.877899 517.073120,304.976410 
	C515.784973,336.757538 514.457336,368.537018 513.170654,400.318176 
	C511.472900,442.250336 509.811951,484.183990 508.108521,526.115906 
	C506.817474,557.896667 505.470520,589.675110 504.174286,621.455688 
	C502.484375,662.888184 500.823456,704.321716 499.143616,745.754578 
	C497.821411,778.367249 496.480103,810.979187 495.164032,843.592041 
	C493.129425,894.011108 491.094360,944.430115 489.089508,994.850342 
	C488.222687,1016.650696 487.475250,1038.455811 486.594696,1060.255615 
	C485.095917,1097.360229 483.599976,1134.465332 481.914825,1171.561646 
	C481.711731,1176.032349 483.053741,1177.223633 487.446045,1177.216187 
	C558.438843,1177.095337 629.431946,1177.105347 700.424744,1177.199707 
	C704.335327,1177.204956 705.873108,1176.253418 706.222961,1172.029785 
	C708.147278,1148.798828 710.429260,1125.597534 712.579041,1102.385132 
	C715.389099,1072.042969 718.201843,1041.700928 720.992065,1011.356873 
	C723.477295,984.329468 725.911865,957.297424 728.408081,930.271118 
	C731.241333,899.597229 734.145142,868.929871 736.968811,838.255188 
	C739.807800,807.413452 742.552917,776.563049 745.399658,745.722046 
	C748.552368,711.566650 751.808105,677.420715 754.954651,643.264771 
	C757.795898,612.423279 760.525146,581.571533 763.350159,550.728577 
	C766.235901,519.222961 769.187866,487.723480 772.092407,456.219635 
	C774.523132,429.855957 776.973083,403.493866 779.300537,377.121063 
	C779.714905,372.425812 781.033203,368.994385 786.519958,368.974487 
	C790.146790,368.961304 791.309387,367.023499 791.188232,363.514313 
	C790.975525,357.355652 791.131775,351.184265 791.131836,345.018219 
	C791.131897,259.526642 791.130066,174.035095 791.137512,88.543526 
	C791.137756,85.210426 791.849792,82.006210 786.400024,82.046890 
	C758.071045,82.258446 729.739319,82.087265 701.409973,82.276306 
	C699.533813,82.288834 697.640320,84.131973 695.807922,85.213470 
	C693.161865,86.775169 690.653259,89.583344 687.928101,89.791405 
	C681.804688,90.258919 675.584106,89.453590 669.137695,89.154060 
	C661.608887,98.225548 653.953308,108.798347 644.946289,118.056221 
	C614.685547,149.159775 577.685791,167.027115 534.604126,172.259995 
	C531.147278,172.679871 526.416626,174.608475 525.785828,169.142365 
	C525.181091,163.902344 530.327332,164.708466 533.462280,164.329651 
	C576.553162,159.122772 612.952026,140.670364 642.455627,108.937531 
	C649.840332,100.994881 656.106140,92.011925 662.886108,83.507065 
	C662.528625,83.052147 662.171082,82.597229 661.813599,82.142311 
	C632.375732,82.142311 602.937866,82.142311 572.500000,82.142021 
M1105.494629,1177.132324 
	C1108.494141,1177.131836 1111.515503,1176.901855 1114.487915,1177.185547 
	C1118.802734,1177.597290 1120.328247,1176.189087 1120.092285,1171.620850 
	C1118.992554,1150.333374 1118.197754,1129.029785 1117.325562,1107.730713 
	C1115.969849,1074.615234 1114.642090,1041.498413 1113.297852,1008.382507 
	C1111.973877,975.766113 1110.642334,943.150024 1109.317505,910.533752 
	C1107.647949,869.430359 1105.982422,828.326843 1104.314575,787.223389 
	C1102.984131,754.440369 1101.652954,721.657288 1100.321899,688.874268 
	C1098.652954,647.770935 1096.984619,606.667542 1095.314453,565.564270 
	C1093.650757,524.627258 1091.983765,483.690430 1090.321289,442.753387 
	C1088.652100,401.649811 1086.988770,360.546051 1085.319702,319.442474 
	C1083.995239,286.825836 1082.650635,254.210022 1081.342163,221.592743 
	C1079.546265,176.826385 1077.732300,132.060623 1076.074219,87.289101 
	C1075.933838,83.497734 1074.993896,82.052322 1070.948364,82.065071 
	C1030.115479,82.193810 989.281982,82.106819 948.449280,82.257881 
	C946.511536,82.265053 943.823059,83.469574 942.888062,84.983490 
	C942.157410,86.166512 943.099792,89.049454 944.163452,90.573540 
	C959.276428,112.227707 978.315430,129.639908 1001.310181,142.652924 
	C1022.770630,154.797607 1045.829468,162.006973 1070.327148,164.661896 
	C1073.326538,164.986969 1076.368042,165.572067 1075.774170,169.504028 
	C1075.241333,173.031265 1072.286255,173.003983 1069.490479,172.674179 
	C1014.536621,166.192078 970.574219,140.776749 938.099548,95.925179 
	C935.000427,91.645027 932.023804,89.420197 926.729736,90.075806 
	C922.077881,90.651894 917.496033,89.842445 914.822266,85.483032 
	C913.049438,82.592621 910.809509,82.082611 907.767029,82.096298 
	C887.934082,82.185585 868.100586,82.139977 848.267273,82.142548 
	C840.675720,82.143532 840.669983,82.148407 840.669800,89.762062 
	C840.668091,153.261978 840.624939,216.761948 840.709290,280.261749 
	C840.724243,291.498749 836.558716,300.262329 827.089233,306.464630 
	C822.350769,309.568207 817.543335,312.618774 813.145569,316.162994 
	C811.500732,317.488556 810.055115,320.130615 810.013367,322.202576 
	C809.738037,335.863678 810.006958,349.535217 809.783447,363.198242 
	C809.719727,367.090485 811.210632,368.818390 814.825623,368.873596 
	C820.225708,368.956116 822.249512,371.758759 822.707275,376.961273 
	C825.670288,410.636261 828.849121,444.292267 831.925964,477.957306 
	C834.730042,508.638123 837.463501,539.325439 840.285461,570.004578 
	C843.137756,601.014160 846.081787,632.015442 848.945740,663.023987 
	C851.426819,689.887146 853.825439,716.757935 856.308472,743.620911 
	C859.481201,777.946472 862.734131,812.264648 865.892700,846.591492 
	C868.715576,877.270325 871.412354,907.960693 874.246399,938.638489 
	C877.739014,976.445374 881.338379,1014.242432 884.850464,1052.047607 
	C888.516602,1091.511353 892.169739,1130.976196 895.737183,1170.448975 
	C896.341797,1177.137939 895.233032,1177.135986 903.496216,1177.135254 
	C970.496155,1177.129883 1037.496094,1177.132568 1105.494629,1177.132324 
M808.562927,82.129059 
	C797.880371,82.268394 799.151306,80.810165 799.146423,91.310501 
	C799.112976,163.579498 799.128845,235.848511 799.128845,308.117523 
	C799.128845,310.190277 799.128845,312.263062 799.128845,315.720673 
	C807.139648,310.253571 813.775635,305.304199 820.818604,301.024658 
	C829.607483,295.684204 832.811646,288.163666 832.777100,278.052643 
	C832.563293,215.442429 832.669739,152.831116 832.668823,90.220177 
	C832.668823,88.888069 832.593506,87.552597 832.663879,86.224548 
	C832.820435,83.272583 831.542419,82.039429 828.525818,82.100273 
	C822.200745,82.227844 815.871277,82.132904 808.562927,82.129059 
M590.500000,74.132401 
	C613.990845,74.131546 637.482117,74.055717 660.971985,74.203552 
	C664.893005,74.228233 666.180359,73.026581 666.073608,69.077431 
	C665.821533,59.754566 665.742615,50.410641 666.098694,41.094547 
	C666.279785,36.357933 665.000427,34.868603 660.064087,34.893280 
	C619.914062,35.094036 579.762634,34.999073 539.611633,35.011509 
	C530.275940,35.014400 526.306946,38.933140 526.167969,48.391171 
	C526.067566,55.220383 526.365662,62.062023 526.062439,68.879280 
	C525.873596,73.125381 527.461609,74.245010 531.523315,74.208611 
	C550.847595,74.035400 570.174194,74.132065 590.500000,74.132401 
M947.781799,35.035770 
	C944.471680,34.968811 944.687744,37.371109 944.683289,39.541084 
	C944.662598,49.528622 944.762268,59.517418 944.625977,69.503136 
	C944.579590,72.905197 945.752563,74.186752 949.247803,74.179611 
	C989.697388,74.096962 1030.147339,74.087601 1070.596802,74.192863 
	C1074.434570,74.202850 1075.511841,72.712639 1075.377319,69.158081 
	C1075.138184,62.840866 1075.175415,56.512474 1075.137939,50.188515 
	C1075.072632,39.149731 1070.874390,35.011097 1059.596802,35.008572 
	C1022.642700,35.000305 985.688599,35.009975 947.781799,35.035770 
M776.483765,35.006557 
	C752.012634,35.007038 727.541138,35.065147 703.070618,34.946068 
	C699.386169,34.928139 697.665466,35.687645 697.782288,39.873951 
	C698.060669,49.854446 697.962219,59.849064 697.827087,69.835419 
	C697.783081,73.087502 698.991516,74.179626 702.201721,74.170174 
	C729.669067,74.089218 757.137024,74.071503 784.604126,74.189117 
	C788.239441,74.204689 789.120850,72.768829 789.045776,69.451492 
	C788.872559,61.797798 788.993042,54.137474 788.993347,46.479839 
	C788.993896,35.006565 788.993469,35.006565 776.483765,35.006557 
M841.552246,74.135994 
	C863.354675,74.135139 885.157715,74.049301 906.958984,74.208794 
	C911.069031,74.238861 912.514099,72.950401 912.407288,68.800293 
	C912.167480,59.486366 912.132874,50.155819 912.420105,40.844536 
	C912.559509,36.324188 911.191162,34.856445 906.527588,34.900169 
	C882.730042,35.123291 858.929382,34.997051 835.129761,35.017872 
	C833.749878,35.019077 832.370117,35.238541 830.119324,35.430851 
	C836.956360,40.749462 840.556458,46.853733 840.560608,54.724522 
	C840.564697,62.538006 836.726379,68.503716 829.784607,74.136276 
	C834.352478,74.136276 837.465210,74.136276 841.552246,74.135994 
M920.303833,39.525120 
	C920.303650,50.356483 920.302429,61.187847 920.303711,72.019211 
	C920.304871,82.337624 920.630249,82.643723 931.032959,82.148819 
	C931.199341,82.140907 931.366516,82.131874 931.532654,82.138680 
	C934.902161,82.276810 936.558594,80.395721 936.574524,77.288559 
	C936.655640,61.459961 936.717285,45.629063 936.459717,29.804260 
	C936.433472,28.190638 934.528076,25.642565 932.994202,25.177027 
	C923.861145,22.405104 920.304688,25.189129 920.303589,34.539101 
	C920.303406,35.872189 920.304321,37.205280 920.303833,39.525120 
M689.994934,60.499287 
	C689.994507,51.030365 690.023560,41.561321 689.983459,32.092567 
	C689.955627,25.516518 689.167175,24.861139 681.772888,24.867657 
	C674.585693,24.873993 673.898804,25.426071 673.881592,31.833370 
	C673.842712,46.285847 673.843811,60.738567 673.881592,75.191048 
	C673.897766,81.375259 674.641235,82.065292 680.777771,82.128845 
	C682.106506,82.142609 683.437134,82.079132 684.764282,82.124329 
	C688.355774,82.246658 689.932312,80.340813 689.960999,76.947823 
	C690.004456,71.798416 689.986694,66.648491 689.994934,60.499287 
M827.071228,65.684410 
	C831.904541,61.676926 833.656799,56.551071 831.907654,50.571621 
	C830.405273,45.435448 826.785767,42.119537 821.499939,40.954849 
	C815.426270,39.616573 809.305481,42.488708 806.325439,47.876297 
	C803.368591,53.221748 804.352234,59.953087 808.732605,64.349998 
	C813.585571,69.221184 819.473450,69.798798 827.071228,65.684410 
M801.677551,365.434296 
	C801.677551,351.926117 801.677551,338.417938 801.677551,324.909729 
	C801.192505,324.823181 800.707397,324.736603 800.222351,324.650024 
	C799.834595,325.861755 799.119080,327.071075 799.110046,328.285614 
	C799.023743,339.935394 799.007568,351.586578 799.148071,363.235260 
	C799.159424,364.174469 800.481873,365.097809 801.677551,365.434296 
M800.497986,34.993961 
	C799.335876,35.986099 797.354553,36.847527 797.171326,37.995823 
	C796.695984,40.975441 797.011719,44.081268 797.011719,47.151478 
	C800.304443,42.990978 803.358215,39.132446 806.640320,34.985355 
	C804.642883,34.985355 802.990906,34.985355 800.497986,34.993961 
M805.777222,73.786774 
	C802.992859,70.007309 800.208557,66.227852 796.984741,61.851913 
	C796.984741,64.845268 797.163635,67.142174 796.943970,69.400307 
	C796.588989,73.048737 797.989807,74.643280 801.685669,74.171463 
	C802.820312,74.026611 803.980835,74.084465 805.777222,73.786774 
z"/>
<path fill="#637E93" opacity="1.000000" stroke="none" 
	d="
M573.000000,82.142166 
	C602.937866,82.142311 632.375732,82.142311 661.813599,82.142311 
	C662.171082,82.597229 662.528625,83.052147 662.886108,83.507065 
	C656.106140,92.011925 649.840332,100.994881 642.455627,108.937531 
	C612.952026,140.670364 576.553162,159.122772 533.462280,164.329651 
	C530.327332,164.708466 525.181091,163.902344 525.785828,169.142365 
	C526.416626,174.608475 531.147278,172.679871 534.604126,172.259995 
	C577.685791,167.027115 614.685547,149.159775 644.946289,118.056221 
	C653.953308,108.798347 661.608887,98.225548 669.137695,89.154060 
	C675.584106,89.453590 681.804688,90.258919 687.928101,89.791405 
	C690.653259,89.583344 693.161865,86.775169 695.807922,85.213470 
	C697.640320,84.131973 699.533813,82.288834 701.409973,82.276306 
	C729.739319,82.087265 758.071045,82.258446 786.400024,82.046890 
	C791.849792,82.006210 791.137756,85.210426 791.137512,88.543526 
	C791.130066,174.035095 791.131897,259.526642 791.131836,345.018219 
	C791.131775,351.184265 790.975525,357.355652 791.188232,363.514313 
	C791.309387,367.023499 790.146790,368.961304 786.519958,368.974487 
	C781.033203,368.994385 779.714905,372.425812 779.300537,377.121063 
	C776.973083,403.493866 774.523132,429.855957 772.092407,456.219635 
	C769.187866,487.723480 766.235901,519.222961 763.350159,550.728577 
	C760.525146,581.571533 757.795898,612.423279 754.954651,643.264771 
	C751.808105,677.420715 748.552368,711.566650 745.399658,745.722046 
	C742.552917,776.563049 739.807800,807.413452 736.968811,838.255188 
	C734.145142,868.929871 731.241333,899.597229 728.408081,930.271118 
	C725.911865,957.297424 723.477295,984.329468 720.992065,1011.356873 
	C718.201843,1041.700928 715.389099,1072.042969 712.579041,1102.385132 
	C710.429260,1125.597534 708.147278,1148.798828 706.222961,1172.029785 
	C705.873108,1176.253418 704.335327,1177.204956 700.424744,1177.199707 
	C629.431946,1177.105347 558.438843,1177.095337 487.446045,1177.216187 
	C483.053741,1177.223633 481.711731,1176.032349 481.914825,1171.561646 
	C483.599976,1134.465332 485.095917,1097.360229 486.594696,1060.255615 
	C487.475250,1038.455811 488.222687,1016.650696 489.089508,994.850342 
	C491.094360,944.430115 493.129425,894.011108 495.164032,843.592041 
	C496.480103,810.979187 497.821411,778.367249 499.143616,745.754578 
	C500.823456,704.321716 502.484375,662.888184 504.174286,621.455688 
	C505.470520,589.675110 506.817474,557.896667 508.108521,526.115906 
	C509.811951,484.183990 511.472900,442.250336 513.170654,400.318176 
	C514.457336,368.537018 515.784973,336.757538 517.073120,304.976410 
	C518.779419,262.877899 520.445923,220.777740 522.165527,178.679764 
	C523.416077,148.065079 524.791748,117.455246 525.923706,86.836296 
	C526.064941,83.014931 527.464050,82.049057 531.004089,82.085480 
	C544.834778,82.227791 558.667847,82.142624 573.000000,82.142166 
M603.401611,160.381638 
	C601.917297,161.027039 600.273071,161.466522 599.034729,162.428558 
	C598.596252,162.769226 598.812317,165.054718 599.304443,165.300308 
	C601.437439,166.364777 604.469299,163.251816 603.401611,160.381638 
M590.324036,170.083206 
	C591.007507,169.163239 591.690918,168.243271 592.374329,167.323318 
	C591.698303,166.988907 590.841980,166.210083 590.377991,166.398315 
	C588.531555,167.147430 586.807495,168.198120 585.038086,169.137131 
	C585.272644,169.717682 585.507141,170.298218 585.741638,170.878754 
	C587.048645,170.707779 588.355652,170.536804 590.324036,170.083206 
M579.750610,172.512848 
	C576.390747,169.560776 574.535645,172.157440 571.987122,174.361801 
	C575.400818,176.591446 577.582397,175.176331 579.750610,172.512848 
M632.717834,142.671738 
	C636.924866,143.817795 637.719299,140.908218 638.852600,138.401276 
	C638.362915,137.871460 637.873230,137.341644 637.383545,136.811829 
	C635.737427,138.576828 634.091309,140.341812 632.717834,142.671738 
M664.758789,112.255150 
	C665.141541,111.724419 665.713501,111.242035 665.864258,110.652008 
	C666.114258,109.674057 666.093079,108.626846 666.186157,107.608818 
	C665.316589,107.741234 663.975159,107.573692 663.664917,108.061691 
	C662.692139,109.591957 662.107849,111.369179 661.373108,113.050766 
	C662.343567,112.961578 663.313965,112.872391 664.758789,112.255150 
M627.010803,149.300522 
	C627.234375,148.426620 627.458008,147.552734 627.681580,146.678833 
	C626.929993,146.562225 625.967529,146.095154 625.467224,146.396210 
	C624.089050,147.225525 622.845825,148.317276 621.696533,149.454147 
	C621.486816,149.661606 621.972107,150.571625 622.136597,151.157318 
	C623.584473,150.699600 625.032410,150.241867 627.010803,149.300522 
M615.443726,157.090302 
	C615.507874,155.973679 615.571960,154.857040 615.636047,153.740433 
	C613.652283,154.862625 611.668457,155.984818 609.684631,157.106995 
	C610.000977,157.729599 610.317322,158.352203 610.633606,158.974808 
	C612.039490,158.479813 613.445312,157.984818 615.443726,157.090302 
M547.387146,178.731750 
	C547.316162,179.734589 547.245178,180.737427 547.174194,181.740280 
	C549.175659,181.250626 551.177063,180.760971 553.178528,180.271317 
	C553.026733,179.590790 552.875000,178.910263 552.723206,178.229736 
	C551.190979,178.306076 549.658691,178.382416 547.387146,178.731750 
M644.426392,133.898621 
	C646.030640,132.391510 647.634827,130.884399 649.239075,129.377289 
	C648.788513,128.962341 648.337891,128.547394 647.887329,128.132446 
	C645.251709,128.962189 642.336304,129.558319 644.426392,133.898621 
z"/>
<path fill="#637E93" opacity="1.000000" stroke="none" 
	d="
M1104.995361,1177.132568 
	C1037.496094,1177.132568 970.496155,1177.129883 903.496216,1177.135254 
	C895.233032,1177.135986 896.341797,1177.137939 895.737183,1170.448975 
	C892.169739,1130.976196 888.516602,1091.511353 884.850464,1052.047607 
	C881.338379,1014.242432 877.739014,976.445374 874.246399,938.638489 
	C871.412354,907.960693 868.715576,877.270325 865.892700,846.591492 
	C862.734131,812.264648 859.481201,777.946472 856.308472,743.620911 
	C853.825439,716.757935 851.426819,689.887146 848.945740,663.023987 
	C846.081787,632.015442 843.137756,601.014160 840.285461,570.004578 
	C837.463501,539.325439 834.730042,508.638123 831.925964,477.957306 
	C828.849121,444.292267 825.670288,410.636261 822.707275,376.961273 
	C822.249512,371.758759 820.225708,368.956116 814.825623,368.873596 
	C811.210632,368.818390 809.719727,367.090485 809.783447,363.198242 
	C810.006958,349.535217 809.738037,335.863678 810.013367,322.202576 
	C810.055115,320.130615 811.500732,317.488556 813.145569,316.162994 
	C817.543335,312.618774 822.350769,309.568207 827.089233,306.464630 
	C836.558716,300.262329 840.724243,291.498749 840.709290,280.261749 
	C840.624939,216.761948 840.668091,153.261978 840.669800,89.762062 
	C840.669983,82.148407 840.675720,82.143532 848.267273,82.142548 
	C868.100586,82.139977 887.934082,82.185585 907.767029,82.096298 
	C910.809509,82.082611 913.049438,82.592621 914.822266,85.483032 
	C917.496033,89.842445 922.077881,90.651894 926.729736,90.075806 
	C932.023804,89.420197 935.000427,91.645027 938.099548,95.925179 
	C970.574219,140.776749 1014.536621,166.192078 1069.490479,172.674179 
	C1072.286255,173.003983 1075.241333,173.031265 1075.774170,169.504028 
	C1076.368042,165.572067 1073.326538,164.986969 1070.327148,164.661896 
	C1045.829468,162.006973 1022.770630,154.797607 1001.310181,142.652924 
	C978.315430,129.639908 959.276428,112.227707 944.163452,90.573540 
	C943.099792,89.049454 942.157410,86.166512 942.888062,84.983490 
	C943.823059,83.469574 946.511536,82.265053 948.449280,82.257881 
	C989.281982,82.106819 1030.115479,82.193810 1070.948364,82.065071 
	C1074.993896,82.052322 1075.933838,83.497734 1076.074219,87.289101 
	C1077.732300,132.060623 1079.546265,176.826385 1081.342163,221.592743 
	C1082.650635,254.210022 1083.995239,286.825836 1085.319702,319.442474 
	C1086.988770,360.546051 1088.652100,401.649811 1090.321289,442.753387 
	C1091.983765,483.690430 1093.650757,524.627258 1095.314453,565.564270 
	C1096.984619,606.667542 1098.652954,647.770935 1100.321899,688.874268 
	C1101.652954,721.657288 1102.984131,754.440369 1104.314575,787.223389 
	C1105.982422,828.326843 1107.647949,869.430359 1109.317505,910.533752 
	C1110.642334,943.150024 1111.973877,975.766113 1113.297852,1008.382507 
	C1114.642090,1041.498413 1115.969849,1074.615234 1117.325562,1107.730713 
	C1118.197754,1129.029785 1118.992554,1150.333374 1120.092285,1171.620850 
	C1120.328247,1176.189087 1118.802734,1177.597290 1114.487915,1177.185547 
	C1111.515503,1176.901855 1108.494141,1177.131836 1104.995361,1177.132568 
M999.192627,161.229889 
	C997.942261,161.005569 996.691833,160.781250 995.441467,160.556931 
	C995.223389,161.046799 995.005371,161.536667 994.787354,162.026535 
	C995.952515,162.970016 996.997437,164.187943 998.321838,164.767792 
	C999.331665,165.209930 1000.695679,164.843048 1001.902100,164.836090 
	C1001.197083,163.744110 1000.492065,162.652130 999.192627,161.229889 
M964.459961,138.068512 
	C963.387512,138.407944 962.315002,138.747391 961.242554,139.086807 
	C962.625916,140.452087 963.940979,141.902832 965.451233,143.109375 
	C965.747620,143.346207 966.798523,142.638657 967.501465,142.366623 
	C966.668457,141.073883 965.835388,139.781128 964.459961,138.068512 
M1013.807922,170.740250 
	C1015.694702,166.992462 1012.053528,167.489212 1010.462463,166.674652 
	C1009.817566,166.344543 1008.593689,167.145401 1007.633301,167.431625 
	C1008.829041,168.514450 1009.969666,169.670029 1011.250305,170.640701 
	C1011.698669,170.980515 1012.491821,170.865402 1013.807922,170.740250 
M1021.310791,174.276093 
	C1023.320740,174.644623 1025.330688,175.013168 1027.340576,175.381699 
	C1027.491577,174.729355 1027.642700,174.077026 1027.793701,173.424683 
	C1026.090454,172.698196 1024.430176,171.774323 1022.652954,171.387207 
	C1022.221069,171.293106 1021.404358,172.965683 1021.310791,174.276093 
M938.261108,113.545464 
	C937.459900,111.526840 936.710388,109.483414 935.773132,107.530083 
	C935.684631,107.345467 934.416626,107.726746 933.696228,107.845306 
	C934.546265,109.636688 935.352844,111.451263 936.285400,113.198608 
	C936.458496,113.523071 937.138855,113.576828 938.261108,113.545464 
M977.754456,148.454102 
	C976.087585,147.567261 974.420776,146.680420 972.753906,145.793579 
	C972.372620,146.382355 971.991333,146.971130 971.609985,147.559921 
	C973.097168,148.816086 974.546753,150.127548 976.148132,151.215591 
	C976.266418,151.295929 977.477783,149.767502 977.754456,148.454102 
M983.556335,156.150146 
	C984.908997,157.018021 986.190796,158.058441 987.653137,158.659592 
	C988.159912,158.867920 989.114746,157.986420 989.864929,157.602692 
	C988.826355,156.487091 987.966370,154.960464 986.684998,154.403656 
	C985.861023,154.045609 984.417297,155.113693 983.556335,156.150146 
M953.887146,128.445343 
	C953.016296,128.950226 952.145386,129.455093 951.274536,129.959991 
	C952.940063,131.422211 954.605530,132.884430 956.271057,134.346649 
	C956.739380,133.830856 957.207642,133.315048 957.675903,132.799255 
	C956.600586,131.492218 955.525269,130.185196 953.887146,128.445343 
M1047.416626,178.705673 
	C1048.308838,183.349579 1051.143188,181.816116 1053.680908,181.226471 
	C1053.861450,180.651993 1054.041870,180.077530 1054.222412,179.503067 
	C1052.169067,179.086166 1050.115601,178.669266 1047.416626,178.705673 
M946.877869,120.666855 
	C945.585022,119.725296 944.292175,118.783737 942.999329,117.842171 
	C942.548035,118.275146 942.096802,118.708115 941.645508,119.141090 
	C942.810852,120.668694 943.675293,122.735298 945.213867,123.594429 
	C947.387024,124.807816 948.313232,123.599190 946.877869,120.666855 
z"/>
<path fill="#627C91" opacity="1.000000" stroke="none" 
	d="
M809.053223,82.129196 
	C815.871277,82.132904 822.200745,82.227844 828.525818,82.100273 
	C831.542419,82.039429 832.820435,83.272583 832.663879,86.224548 
	C832.593506,87.552597 832.668823,88.888069 832.668823,90.220177 
	C832.669739,152.831116 832.563293,215.442429 832.777100,278.052643 
	C832.811646,288.163666 829.607483,295.684204 820.818604,301.024658 
	C813.775635,305.304199 807.139648,310.253571 799.128845,315.720673 
	C799.128845,312.263062 799.128845,310.190277 799.128845,308.117523 
	C799.128845,235.848511 799.112976,163.579498 799.146423,91.310501 
	C799.151306,80.810165 797.880371,82.268394 809.053223,82.129196 
z"/>
<path fill="#637E93" opacity="1.000000" stroke="none" 
	d="
M590.000000,74.132538 
	C570.174194,74.132065 550.847595,74.035400 531.523315,74.208611 
	C527.461609,74.245010 525.873596,73.125381 526.062439,68.879280 
	C526.365662,62.062023 526.067566,55.220383 526.167969,48.391171 
	C526.306946,38.933140 530.275940,35.014400 539.611633,35.011509 
	C579.762634,34.999073 619.914062,35.094036 660.064087,34.893280 
	C665.000427,34.868603 666.279785,36.357933 666.098694,41.094547 
	C665.742615,50.410641 665.821533,59.754566 666.073608,69.077431 
	C666.180359,73.026581 664.893005,74.228233 660.971985,74.203552 
	C637.482117,74.055717 613.990845,74.131546 590.000000,74.132538 
z"/>
<path fill="#637E93" opacity="1.000000" stroke="none" 
	d="
M948.258179,35.024261 
	C985.688599,35.009975 1022.642700,35.000305 1059.596802,35.008572 
	C1070.874390,35.011097 1075.072632,39.149731 1075.137939,50.188515 
	C1075.175415,56.512474 1075.138184,62.840866 1075.377319,69.158081 
	C1075.511841,72.712639 1074.434570,74.202850 1070.596802,74.192863 
	C1030.147339,74.087601 989.697388,74.096962 949.247803,74.179611 
	C945.752563,74.186752 944.579590,72.905197 944.625977,69.503136 
	C944.762268,59.517418 944.662598,49.528622 944.683289,39.541084 
	C944.687744,37.371109 944.471680,34.968811 948.258179,35.024261 
z"/>
<path fill="#637E93" opacity="1.000000" stroke="none" 
	d="
M776.979248,35.006561 
	C788.993469,35.006565 788.993896,35.006565 788.993347,46.479839 
	C788.993042,54.137474 788.872559,61.797798 789.045776,69.451492 
	C789.120850,72.768829 788.239441,74.204689 784.604126,74.189117 
	C757.137024,74.071503 729.669067,74.089218 702.201721,74.170174 
	C698.991516,74.179626 697.783081,73.087502 697.827087,69.835419 
	C697.962219,59.849064 698.060669,49.854446 697.782288,39.873951 
	C697.665466,35.687645 699.386169,34.928139 703.070618,34.946068 
	C727.541138,35.065147 752.012634,35.007038 776.979248,35.006561 
z"/>
<path fill="#627D92" opacity="1.000000" stroke="none" 
	d="
M841.065063,74.136139 
	C837.465210,74.136276 834.352478,74.136276 829.784607,74.136276 
	C836.726379,68.503716 840.564697,62.538006 840.560608,54.724522 
	C840.556458,46.853733 836.956360,40.749462 830.119324,35.430851 
	C832.370117,35.238541 833.749878,35.019077 835.129761,35.017872 
	C858.929382,34.997051 882.730042,35.123291 906.527588,34.900169 
	C911.191162,34.856445 912.559509,36.324188 912.420105,40.844536 
	C912.132874,50.155819 912.167480,59.486366 912.407288,68.800293 
	C912.514099,72.950401 911.069031,74.238861 906.958984,74.208794 
	C885.157715,74.049301 863.354675,74.135139 841.065063,74.136139 
z"/>
<path fill="#607A8E" opacity="1.000000" stroke="none" 
	d="
M920.304321,39.031746 
	C920.304321,37.205280 920.303406,35.872189 920.303589,34.539101 
	C920.304688,25.189129 923.861145,22.405104 932.994202,25.177027 
	C934.528076,25.642565 936.433472,28.190638 936.459717,29.804260 
	C936.717285,45.629063 936.655640,61.459961 936.574524,77.288559 
	C936.558594,80.395721 934.902161,82.276810 931.532654,82.138680 
	C931.366516,82.131874 931.199341,82.140907 931.032959,82.148819 
	C920.630249,82.643723 920.304871,82.337624 920.303711,72.019211 
	C920.302429,61.187847 920.303650,50.356483 920.304321,39.031746 
z"/>
<path fill="#637E93" opacity="1.000000" stroke="none" 
	d="
M689.994934,60.999039 
	C689.986694,66.648491 690.004456,71.798416 689.960999,76.947823 
	C689.932312,80.340813 688.355774,82.246658 684.764282,82.124329 
	C683.437134,82.079132 682.106506,82.142609 680.777771,82.128845 
	C674.641235,82.065292 673.897766,81.375259 673.881592,75.191048 
	C673.843811,60.738567 673.842712,46.285847 673.881592,31.833370 
	C673.898804,25.426071 674.585693,24.873993 681.772888,24.867657 
	C689.167175,24.861139 689.955627,25.516518 689.983459,32.092567 
	C690.023560,41.561321 689.994507,51.030365 689.994934,60.999039 
z"/>
<path fill="#D5D5D5" opacity="1.000000" stroke="none" 
	d="
M826.758240,65.886063 
	C819.473450,69.798798 813.585571,69.221184 808.732605,64.349998 
	C804.352234,59.953087 803.368591,53.221748 806.325439,47.876297 
	C809.305481,42.488708 815.426270,39.616573 821.499939,40.954849 
	C826.785767,42.119537 830.405273,45.435448 831.907654,50.571621 
	C833.656799,56.551071 831.904541,61.676926 826.758240,65.886063 
z"/>
<path fill="#597082" opacity="1.000000" stroke="none" 
	d="
M801.436279,365.731384 
	C800.481873,365.097809 799.159424,364.174469 799.148071,363.235260 
	C799.007568,351.586578 799.023743,339.935394 799.110046,328.285614 
	C799.119080,327.071075 799.834595,325.861755 800.222351,324.650024 
	C800.707397,324.736603 801.192505,324.823181 801.677551,324.909729 
	C801.677551,338.417938 801.677551,351.926117 801.436279,365.731384 
z"/>
<path fill="#607A8E" opacity="1.000000" stroke="none" 
	d="
M800.918457,34.989658 
	C802.990906,34.985355 804.642883,34.985355 806.640320,34.985355 
	C803.358215,39.132446 800.304443,42.990978 797.011719,47.151478 
	C797.011719,44.081268 796.695984,40.975441 797.171326,37.995823 
	C797.354553,36.847527 799.335876,35.986099 800.918457,34.989658 
z"/>
<path fill="#607A8E" opacity="1.000000" stroke="none" 
	d="
M805.453369,73.918137 
	C803.980835,74.084465 802.820312,74.026611 801.685669,74.171463 
	C797.989807,74.643280 796.588989,73.048737 796.943970,69.400307 
	C797.163635,67.142174 796.984741,64.845268 796.984741,61.851913 
	C800.208557,66.227852 802.992859,70.007309 805.453369,73.918137 
z"/>
<path fill="#C2C4AF" opacity="1.000000" stroke="none" 
	d="
M603.732971,160.487228 
	C604.469299,163.251816 601.437439,166.364777 599.304443,165.300308 
	C598.812317,165.054718 598.596252,162.769226 599.034729,162.428558 
	C600.273071,161.466522 601.917297,161.027039 603.732971,160.487228 
z"/>
<path fill="#C2C4AF" opacity="1.000000" stroke="none" 
	d="
M589.993347,170.224518 
	C588.355652,170.536804 587.048645,170.707779 585.741638,170.878754 
	C585.507141,170.298218 585.272644,169.717682 585.038086,169.137131 
	C586.807495,168.198120 588.531555,167.147430 590.377991,166.398315 
	C590.841980,166.210083 591.698303,166.988907 592.374329,167.323318 
	C591.690918,168.243271 591.007507,169.163239 589.993347,170.224518 
z"/>
<path fill="#C2C4AF" opacity="1.000000" stroke="none" 
	d="
M579.709839,172.865295 
	C577.582397,175.176331 575.400818,176.591446 571.987122,174.361801 
	C574.535645,172.157440 576.390747,169.560776 579.709839,172.865295 
z"/>
<path fill="#C2C4AF" opacity="1.000000" stroke="none" 
	d="
M632.581543,142.389282 
	C634.091309,140.341812 635.737427,138.576828 637.383545,136.811829 
	C637.873230,137.341644 638.362915,137.871460 638.852600,138.401276 
	C637.719299,140.908218 636.924866,143.817795 632.581543,142.389282 
z"/>
<path fill="#C2C4AF" opacity="1.000000" stroke="none" 
	d="
M664.521606,112.519180 
	C663.313965,112.872391 662.343567,112.961578 661.373047,113.050751 
	C662.107849,111.369179 662.692139,109.591957 663.664917,108.061691 
	C663.975159,107.573692 665.316589,107.741234 666.186157,107.608818 
	C666.093079,108.626846 666.114258,109.674057 665.864258,110.652008 
	C665.713501,111.242035 665.141541,111.724419 664.521606,112.519180 
z"/>
<path fill="#C2C4AF" opacity="1.000000" stroke="none" 
	d="
M626.745544,149.542328 
	C625.032410,150.241867 623.584473,150.699600 622.136597,151.157318 
	C621.972107,150.571625 621.486816,149.661606 621.696533,149.454147 
	C622.845825,148.317276 624.089050,147.225525 625.467224,146.396210 
	C625.967529,146.095154 626.929993,146.562225 627.681641,146.678833 
	C627.458008,147.552734 627.234375,148.426620 626.745544,149.542328 
z"/>
<path fill="#C2C4AF" opacity="1.000000" stroke="none" 
	d="
M615.147461,157.290070 
	C613.445312,157.984818 612.039490,158.479813 610.633606,158.974808 
	C610.317322,158.352203 610.000977,157.729599 609.684631,157.106995 
	C611.668457,155.984818 613.652283,154.862625 615.636047,153.740417 
	C615.571960,154.857040 615.507874,155.973679 615.147461,157.290070 
z"/>
<path fill="#C2C4AF" opacity="1.000000" stroke="none" 
	d="
M547.756836,178.595245 
	C549.658691,178.382416 551.190979,178.306076 552.723206,178.229736 
	C552.875000,178.910263 553.026733,179.590790 553.178528,180.271317 
	C551.177063,180.760971 549.175659,181.250626 547.174194,181.740265 
	C547.245178,180.737427 547.316162,179.734589 547.756836,178.595245 
z"/>
<path fill="#C2C4AF" opacity="1.000000" stroke="none" 
	d="
M644.068054,133.817200 
	C642.336304,129.558319 645.251709,128.962189 647.887329,128.132446 
	C648.337891,128.547394 648.788513,128.962341 649.239075,129.377289 
	C647.634827,130.884399 646.030640,132.391510 644.068054,133.817200 
z"/>
<path fill="#C2C4AF" opacity="1.000000" stroke="none" 
	d="
M999.489807,161.395020 
	C1000.492065,162.652130 1001.197083,163.744110 1001.902100,164.836075 
	C1000.695679,164.843048 999.331665,165.209930 998.321838,164.767792 
	C996.997437,164.187943 995.952515,162.970016 994.787354,162.026535 
	C995.005371,161.536667 995.223389,161.046799 995.441467,160.556931 
	C996.691833,160.781250 997.942261,161.005569 999.489807,161.395020 
z"/>
<path fill="#C2C4AF" opacity="1.000000" stroke="none" 
	d="
M964.731140,138.278442 
	C965.835388,139.781128 966.668457,141.073883 967.501465,142.366638 
	C966.798523,142.638657 965.747620,143.346207 965.451233,143.109375 
	C963.940979,141.902832 962.625916,140.452087 961.242554,139.086823 
	C962.315002,138.747391 963.387512,138.407944 964.731140,138.278442 
z"/>
<path fill="#C2C4AF" opacity="1.000000" stroke="none" 
	d="
M1013.467712,170.849152 
	C1012.491821,170.865402 1011.698669,170.980515 1011.250305,170.640701 
	C1009.969666,169.670029 1008.829041,168.514450 1007.633301,167.431625 
	C1008.593689,167.145401 1009.817566,166.344543 1010.462463,166.674652 
	C1012.053528,167.489212 1015.694702,166.992462 1013.467712,170.849152 
z"/>
<path fill="#C2C4AF" opacity="1.000000" stroke="none" 
	d="
M1021.037720,174.051010 
	C1021.404358,172.965683 1022.221069,171.293106 1022.652954,171.387207 
	C1024.430176,171.774323 1026.090454,172.698196 1027.793701,173.424683 
	C1027.642700,174.077026 1027.491577,174.729355 1027.340576,175.381699 
	C1025.330688,175.013168 1023.320740,174.644623 1021.037720,174.051010 
z"/>
<path fill="#C2C4AF" opacity="1.000000" stroke="none" 
	d="
M937.923096,113.650490 
	C937.138855,113.576828 936.458496,113.523071 936.285400,113.198608 
	C935.352844,111.451263 934.546265,109.636688 933.696228,107.845306 
	C934.416626,107.726746 935.684631,107.345467 935.773132,107.530083 
	C936.710388,109.483414 937.459900,111.526840 937.923096,113.650490 
z"/>
<path fill="#C2C4AF" opacity="1.000000" stroke="none" 
	d="
M977.967712,148.720551 
	C977.477783,149.767502 976.266418,151.295929 976.148132,151.215591 
	C974.546753,150.127548 973.097168,148.816086 971.609985,147.559921 
	C971.991333,146.971130 972.372620,146.382355 972.753906,145.793579 
	C974.420776,146.680420 976.087585,147.567261 977.967712,148.720551 
z"/>
<path fill="#C2C4AF" opacity="1.000000" stroke="none" 
	d="
M983.403809,155.846375 
	C984.417297,155.113693 985.861023,154.045609 986.684998,154.403656 
	C987.966370,154.960464 988.826355,156.487091 989.864929,157.602722 
	C989.114746,157.986420 988.159912,158.867920 987.653137,158.659592 
	C986.190796,158.058441 984.908997,157.018021 983.403809,155.846375 
z"/>
<path fill="#C2C4AF" opacity="1.000000" stroke="none" 
	d="
M954.168518,128.661758 
	C955.525269,130.185196 956.600586,131.492218 957.675903,132.799255 
	C957.207642,133.315048 956.739380,133.830856 956.271057,134.346649 
	C954.605530,132.884430 952.940063,131.422211 951.274536,129.959991 
	C952.145386,129.455093 953.016296,128.950226 954.168518,128.661758 
z"/>
<path fill="#C2C4AF" opacity="1.000000" stroke="none" 
	d="
M1047.739502,178.479004 
	C1050.115601,178.669266 1052.169067,179.086166 1054.222412,179.503067 
	C1054.041870,180.077530 1053.861450,180.651993 1053.680908,181.226471 
	C1051.143188,181.816116 1048.308838,183.349579 1047.739502,178.479004 
z"/>
<path fill="#C2C4AF" opacity="1.000000" stroke="none" 
	d="
M947.089233,120.963409 
	C948.313232,123.599190 947.387024,124.807816 945.213867,123.594429 
	C943.675293,122.735298 942.810852,120.668694 941.645508,119.141090 
	C942.096802,118.708115 942.548035,118.275146 942.999329,117.842171 
	C944.292175,118.783737 945.585022,119.725296 947.089233,120.963409 
z"/>
</svg>