<svg version="1.1" id="Layer_1" xmlns="http://www.w3.org/2000/svg" xmlns:xlink="http://www.w3.org/1999/xlink" x="0px" y="0px"
	 width="100%" viewBox="0 0 625 624" enable-background="new 0 0 625 624" xml:space="preserve">
<path fill="#FFFFFF" opacity="1.000000" stroke="none" 
	d="
M355.000000,625.000000 
	C236.666687,625.000000 118.833374,625.000000 1.000047,625.000000 
	C1.000032,417.000061 1.000032,209.000122 1.000016,1.000131 
	C209.333237,1.000087 417.666473,1.000087 625.999756,1.000044 
	C625.999878,208.999863 625.999878,416.999725 625.999939,624.999756 
	C535.833313,625.000000 445.666656,625.000000 355.000000,625.000000 
M223.151993,569.005432 
	C223.151993,573.757507 223.151993,578.509583 223.151993,583.408447 
	C235.035339,583.408447 245.802277,583.408447 256.958740,583.408447 
	C257.622253,578.204529 258.270142,573.122986 259.289429,567.317932 
	C260.098236,561.505005 260.907013,555.692078 261.875610,549.051208 
	C264.399506,531.265930 266.911560,513.478943 269.449738,495.695770 
	C274.644287,459.300903 279.840851,422.906311 285.059082,386.514832 
	C290.230133,350.452179 295.442291,314.395447 300.611389,278.332520 
	C305.095459,247.048645 309.537048,215.758698 314.012970,184.473648 
	C315.710968,172.605103 317.452240,160.742737 319.173767,148.877548 
	C319.383820,148.892761 319.593872,148.907959 319.803925,148.923157 
	C337.912537,282.595856 356.021149,416.268524 374.010803,550.810791 
	C374.855286,556.554260 375.699799,562.297729 376.694031,568.921448 
	C377.160950,572.695435 377.446350,576.506042 378.197205,580.222656 
	C378.446259,581.455383 379.872467,583.385193 380.793762,583.404480 
	C391.497192,583.628662 402.207001,583.547852 413.737091,583.547852 
	C413.737091,577.960632 413.737091,573.036133 413.951630,567.183472 
	C413.919891,561.432373 413.888153,555.681335 413.983368,549.010254 
	C414.602112,517.049866 415.235840,485.089722 415.835327,453.128937 
	C416.431732,421.331940 416.981262,389.534058 417.573700,357.737000 
	C418.560059,304.799133 419.575684,251.861832 420.553558,198.923828 
	C420.833435,183.771957 421.216980,168.618378 421.212585,153.465698 
	C421.206238,131.685394 420.888184,109.905197 420.890137,87.283485 
	C419.992157,81.522781 419.094177,75.762077 418.189178,69.107315 
	C416.628784,56.106976 415.068420,43.106636 413.514313,30.158249 
	C349.893433,30.158249 286.847687,30.158249 223.460068,30.158249 
	C221.865494,43.624214 220.303391,56.815948 218.209244,70.576073 
	C217.574203,76.427757 216.939178,82.279434 216.168976,88.991699 
	C215.757492,96.626801 214.887299,104.269180 215.008499,111.895821 
	C215.834061,163.842651 216.860779,215.786301 217.837814,267.730682 
	C218.486023,302.192993 219.180740,336.654419 219.815918,371.116943 
	C220.512497,408.910614 221.148712,446.705383 221.842255,484.499084 
	C222.242538,506.310883 222.704178,528.121521 223.020782,550.871338 
	C223.096970,556.612976 223.173172,562.354614 223.151993,569.005432 
z"/>
<path fill="#5F5B52" opacity="1.000000" stroke="none" 
	d="
M374.129761,549.941223 
	C356.021149,416.268524 337.912537,282.595856 319.803925,148.923157 
	C319.593872,148.907959 319.383820,148.892761 319.173767,148.877548 
	C317.452240,160.742737 315.710968,172.605103 314.012970,184.473648 
	C309.537048,215.758698 305.095459,247.048645 300.611389,278.332520 
	C295.442291,314.395447 290.230133,350.452179 285.059082,386.514832 
	C279.840851,422.906311 274.644287,459.300903 269.449738,495.695770 
	C266.911560,513.478943 264.399506,531.265930 261.347168,549.492004 
	C248.258560,549.932739 235.698380,549.932739 223.138214,549.932678 
	C222.704178,528.121521 222.242538,506.310883 221.842255,484.499084 
	C221.148712,446.705383 220.512497,408.910614 219.815918,371.116943 
	C219.180740,336.654419 218.486023,302.192993 217.837814,267.730682 
	C216.860779,215.786301 215.834061,163.842651 215.008499,111.895821 
	C214.887299,104.269180 215.757492,96.626801 216.683716,88.533211 
	C260.925903,88.048363 304.653351,88.002663 348.380798,88.003304 
	C372.488251,88.003662 396.595734,88.081856 420.703186,88.124954 
	C420.888184,109.905197 421.206238,131.685394 421.212585,153.465698 
	C421.216980,168.618378 420.833435,183.771957 420.553558,198.923828 
	C419.575684,251.861832 418.560059,304.799133 417.573700,357.737000 
	C416.981262,389.534058 416.431732,421.331940 415.835327,453.128937 
	C415.235840,485.089722 414.602112,517.049866 413.461548,549.495667 
	C400.003052,549.967834 387.066376,549.954529 374.129761,549.941223 
z"/>
<path fill="#5E5A51" opacity="1.000000" stroke="none" 
	d="
M218.741287,70.007683 
	C220.303391,56.815948 221.865494,43.624214 223.460068,30.158249 
	C286.847687,30.158249 349.893433,30.158249 413.514313,30.158249 
	C415.068420,43.106636 416.628784,56.106976 417.709778,69.553635 
	C351.067352,70.002525 284.904327,70.005104 218.741287,70.007683 
z"/>
<path fill="#8A9293" opacity="1.000000" stroke="none" 
	d="
M218.475266,70.291878 
	C284.904327,70.005104 351.067352,70.002525 417.713318,70.000656 
	C419.094177,75.762077 419.992157,81.522781 420.796661,87.704224 
	C396.595734,88.081856 372.488251,88.003662 348.380798,88.003304 
	C304.653351,88.002663 260.925903,88.048363 216.751312,88.102921 
	C216.939178,82.279434 217.574203,76.427757 218.475266,70.291878 
z"/>
<path fill="#8B9393" opacity="1.000000" stroke="none" 
	d="
M374.070251,550.375977 
	C387.066376,549.954529 400.003052,549.967834 413.398071,549.955688 
	C413.888153,555.681335 413.919891,561.432373 413.394135,567.624268 
	C400.739197,568.057129 388.641724,568.049194 376.544281,568.041260 
	C375.699799,562.297729 374.855286,556.554260 374.070251,550.375977 
z"/>
<path fill="#8B9393" opacity="1.000000" stroke="none" 
	d="
M223.079498,550.401978 
	C235.698380,549.932739 248.258560,549.932739 261.267273,549.906006 
	C260.907013,555.692078 260.098236,561.505005 258.641235,567.657349 
	C246.411789,568.029907 234.830582,568.063110 223.249359,568.096252 
	C223.173172,562.354614 223.096970,556.612976 223.079498,550.401978 
z"/>
<path fill="#5F5B52" opacity="1.000000" stroke="none" 
	d="
M376.619141,568.481323 
	C388.641724,568.049194 400.739197,568.057129 413.286865,568.088318 
	C413.737091,573.036133 413.737091,577.960632 413.737091,583.547852 
	C402.207001,583.547852 391.497192,583.628662 380.793762,583.404480 
	C379.872467,583.385193 378.446259,581.455383 378.197205,580.222656 
	C377.446350,576.506042 377.160950,572.695435 376.619141,568.481323 
z"/>
<path fill="#636057" opacity="1.000000" stroke="none" 
	d="
M223.200684,568.550842 
	C234.830582,568.063110 246.411789,568.029907 258.455505,568.019104 
	C258.270142,573.122986 257.622253,578.204529 256.958740,583.408447 
	C245.802277,583.408447 235.035339,583.408447 223.151993,583.408447 
	C223.151993,578.509583 223.151993,573.757507 223.200684,568.550842 
z"/>
</svg>