<svg xmlns:dc="http://purl.org/dc/elements/1.1/" xmlns:cc="http://creativecommons.org/ns#" xmlns:rdf="http://www.w3.org/1999/02/22-rdf-syntax-ns#" xmlns:svg="http://www.w3.org/2000/svg" xmlns="http://www.w3.org/2000/svg" xmlns:sodipodi="http://sodipodi.sourceforge.net/DTD/sodipodi-0.dtd" xmlns:inkscape="http://www.inkscape.org/namespaces/inkscape" version="1.1" x="0px" y="0px" viewBox="0 0 100 125"><g transform="translate(0,-952.36218)"><path d="m 35.816988,961.36215 28.07114,0 c 0.0684,0.33242 0.12896,0.66753 0.19427,1 l -11.72059,0 0,2 12.07674,0 c 2.42887,13.62402 2.3978,27.32642 1.42461,41.93745 0.004,0.063 0.0154,0.1262 0.0323,0.1875 2.06379,16.4615 2.10289,25.3925 2.10454,36.8751 l -6.37833,0 c -0.37326,-11.0528 -0.96449,-21.5823 -3.27012,-31.1875 -1.08329,-11.0666 -3.89396,-20.126 -7.09062,-29.125 -0.26428,-0.80259 -1.71076,-0.80259 -1.97503,0 -3.10226,8.98274 -6.23052,18.0547 -7.2849,29.1563 -1.9615,10.8211 -2.42981,21.192 -3.04347,31.1562 l -6.21645,0 c -0.11325,-13.3241 -2.06852,-20.4085 0.87419,-36.75 0.0191,-0.072 0.0301,-0.145 0.0324,-0.2188 -0.78542,-14.67523 -0.81012,-28.40381 1.61886,-42.0312 l 11.91486,0 0,-2 -11.5587,0 c 0.0653,-0.3417 0.13444,-0.69301 0.19431,-1.00005 z" style="text-indent:0;text-transform:none;direction:ltr;block-progression:tb;baseline-shift:baseline;color:#000000;enable-background:accumulate;" fill="#000000" fill-opacity="1" stroke="none" marker="none" visibility="visible" display="inline" overflow="visible"/></g><text x="0" y="115" fill="#000000" font-size="5px" font-weight="bold" font-family="'Helvetica Neue', Helvetica, Arial-Unicode, Arial, Sans-serif"></text><text x="0" y="120" fill="#000000" font-size="5px" font-weight="bold" font-family="'Helvetica Neue', Helvetica, Arial-Unicode, Arial, Sans-serif"></text></svg>