<svg version="1.1" id="Layer_1" xmlns="http://www.w3.org/2000/svg" xmlns:xlink="http://www.w3.org/1999/xlink" x="0px" y="0px"
	 width="100%" viewBox="0 0 1414 2000" enable-background="new 0 0 1414 2000" xml:space="preserve">
<path fill="none" opacity="1.000000" stroke="#000000" stroke-linecap="round" stroke-linejoin="round" stroke-width="2.000000"
	d="
M615.000000,691.000000 
	C607.833374,702.833313 601.370911,715.174133 593.308594,726.362061 
	C584.662842,738.359497 585.020813,752.119080 583.055725,765.508179 
	C581.964478,772.942749 581.899780,780.477051 581.988953,788.000122 
	C582.415955,824.012329 581.484497,860.012878 580.389160,895.996643 
	C579.412781,928.073181 577.065247,960.075684 573.651489,992.016174 
	C571.505432,1012.096008 570.750366,1032.328369 569.522522,1052.501343 
	C568.205200,1074.145020 567.235718,1095.822998 567.631958,1117.497559 
	C567.894165,1131.846558 567.227417,1146.476685 570.748657,1160.437256 
	C573.870056,1172.812622 579.417419,1184.487183 588.493896,1194.005859 
	C589.875610,1195.454956 591.215759,1196.901855 593.500000,1196.500000 
"/>
<path fill="none" opacity="1.000000" stroke="#000000" stroke-linecap="round" stroke-linejoin="round" stroke-width="2.000000"
	d="
M731.000000,691.000000 
	C738.000000,702.666687 744.199890,714.920166 752.212585,725.844116 
	C761.224915,738.130920 761.398499,752.197449 762.863220,766.014526 
	C765.063599,786.770691 763.721863,807.665649 764.016418,828.499756 
	C764.270935,846.500854 764.430847,864.508240 765.061584,882.497864 
	C765.798157,903.507080 766.679016,924.521606 768.089905,945.493958 
	C769.515686,966.688049 771.690674,987.831299 773.489746,1009.000854 
	C774.381714,1019.495911 775.329529,1029.990112 775.969116,1040.501831 
	C777.802856,1070.639404 778.497253,1100.812744 777.923523,1130.998535 
	C777.752258,1140.007935 777.676697,1149.221191 775.765442,1157.948608 
	C772.831421,1171.346680 766.808716,1183.604004 757.530029,1194.026733 
	C756.115967,1195.615234 754.402100,1196.392334 752.500000,1197.000000 
"/>
<path fill="none" opacity="1.000000" stroke="#000000" stroke-linecap="round" stroke-linejoin="round" stroke-width="2.000000"
	d="
M673.500000,822.500000 
	C672.017700,840.834778 669.984802,859.115051 668.899536,877.494080 
	C667.374634,903.320435 665.592285,929.127502 664.982910,954.999573 
	C664.755188,964.668762 664.216797,974.330994 664.024048,984.000488 
	C663.612061,1004.665588 663.630249,1025.343994 662.891052,1045.996094 
	C662.431396,1058.838989 662.737305,1071.667603 662.502258,1084.500000 
	C662.160339,1103.166504 661.938293,1121.836060 661.452148,1140.498779 
	C661.234924,1148.839478 660.376160,1157.161499 660.032104,1165.501343 
	C659.625061,1175.367432 655.547668,1183.866333 650.454590,1191.971436 
	C648.368896,1195.290771 645.779846,1198.293701 643.314148,1201.581299 
	C639.985962,1200.909668 636.492981,1200.204834 633.000000,1199.500000 
"/>
<path fill="none" opacity="1.000000" stroke="#000000" stroke-linecap="round" stroke-linejoin="round" stroke-width="2.000000"
	d="
M674.000000,833.500000 
	C675.898010,845.760498 676.080688,858.162109 676.952881,870.503357 
	C678.141724,887.323303 679.054749,904.163696 679.976929,921.001282 
	C680.442078,929.494019 680.826477,937.997314 680.968994,946.500549 
	C681.340698,968.670593 682.518066,990.817322 682.646851,1012.999146 
	C682.689331,1020.319580 682.884460,1027.666382 682.982849,1035.000244 
	C683.204224,1051.499512 682.980225,1068.013672 683.615906,1084.495483 
	C684.092041,1096.839355 683.405457,1109.186523 684.082397,1121.495483 
	C685.008240,1138.331787 683.941040,1155.260986 686.904053,1172.016968 
	C688.489380,1180.982056 693.373779,1188.122559 698.029663,1195.481201 
	C699.163879,1197.273804 700.666687,1198.833374 702.000000,1200.500000 
"/>
<path fill="none" opacity="1.000000" stroke="#000000" stroke-linecap="round" stroke-linejoin="round" stroke-width="2.000000"
	d="
M673.000000,698.500000 
	C675.474792,701.197571 673.385681,704.200439 673.397644,707.000427 
	C673.552368,743.166443 673.500000,779.333313 673.500000,815.500000 
	C673.500000,816.500000 673.786194,817.612061 673.446777,818.479187 
	C672.395752,821.164001 674.019165,821.908142 675.945984,823.088196 
	C678.338074,824.553406 680.333313,826.666687 682.500000,828.500000 
"/>
<path fill="none" opacity="1.000000" stroke="#000000" stroke-linecap="round" stroke-linejoin="round" stroke-width="2.000000"
	d="
M730.500000,666.000000 
	C721.517761,664.875305 712.498352,665.580688 703.499817,665.542603 
	C675.833618,665.425598 648.166687,665.486023 620.500061,665.534607 
	C618.843262,665.537537 617.077454,664.941284 615.500000,666.000000 
"/>
<path fill="none" opacity="1.000000" stroke="#000000" stroke-linecap="round" stroke-linejoin="round" stroke-width="2.000000"
	d="
M602.000000,688.500000 
	C595.791626,701.223938 592.756409,714.980347 589.053406,728.514587 
	C588.810486,729.402588 589.333313,730.500000 589.500000,731.500000 
"/>
<path fill="none" opacity="1.000000" stroke="#000000" stroke-linecap="round" stroke-linejoin="round" stroke-width="2.000000"
	d="
M726.500000,667.500000 
	C730.755554,667.740662 734.620605,664.727234 739.078491,666.303040 
	C739.835144,669.332886 741.003967,672.623047 741.440918,676.007629 
	C743.181641,689.490356 750.323303,701.314148 753.035339,714.492737 
	C754.201477,720.159485 757.336060,725.421021 756.500000,731.500000 
"/>
<path fill="none" opacity="1.000000" stroke="#000000" stroke-linecap="round" stroke-linejoin="round" stroke-width="2.000000"
	d="
M698.999939,695.500000 
	C699.166626,705.500000 699.333313,715.500000 699.499939,725.500000 
"/>
<path fill="none" opacity="1.000000" stroke="#000000" stroke-linecap="round" stroke-linejoin="round" stroke-width="6.000000"
	d="
M711.000000,1226.000000 
	C707.173401,1225.799927 705.942017,1223.806519 705.891602,1220.001465 
	C705.820923,1214.662354 704.953064,1209.337036 704.537598,1203.997070 
	C704.449158,1202.859863 703.814087,1202.564087 703.000000,1202.250000 
"/>
<path fill="none" opacity="1.000000" stroke="#000000" stroke-linecap="round" stroke-linejoin="round" stroke-width="4.000000"
	d="
M642.500000,1202.000000 
	C642.732788,1209.415161 640.892761,1216.644897 640.536133,1224.001709 
	C640.398315,1226.845703 638.401184,1225.743774 637.000000,1226.000000 
"/>
<path fill="none" opacity="1.000000" stroke="#000000" stroke-linecap="round" stroke-linejoin="round" stroke-width="2.000000"
	d="
M755.000000,1197.000000 
	C755.809021,1205.155273 756.617981,1213.310547 757.453857,1221.736816 
	C754.716553,1222.200684 752.358276,1222.600342 750.000000,1222.999878 
"/>
<path fill="none" opacity="1.000000" stroke="#000000" stroke-linecap="round" stroke-linejoin="round" stroke-width="2.000000"
	d="
M591.000000,1197.000000 
	C590.073120,1205.341797 589.146240,1213.683594 588.196655,1222.229858 
	C593.150574,1222.580811 598.315430,1222.946655 603.706787,1223.328491 
	C604.974548,1219.953491 604.339600,1216.684814 604.500000,1213.500000 
"/>
<path fill="none" opacity="1.000000" stroke="#000000" stroke-linecap="round" stroke-linejoin="round" stroke-width="2.000000"
	d="
M711.000000,1201.000000 
	C711.740540,1209.176147 713.581177,1217.239990 713.500000,1225.500000 
"/>
<path fill="none" opacity="1.000000" stroke="#000000" stroke-linecap="round" stroke-linejoin="round" stroke-width="2.000000"
	d="
M641.500000,1195.500000 
	C639.010864,1200.554077 639.316528,1206.145142 638.585327,1211.511597 
	C638.068237,1215.307251 636.998230,1219.067017 637.401917,1223.010010 
	C637.505737,1224.024170 636.400940,1225.162109 635.851440,1226.243164 
	C635.347473,1226.129150 634.843506,1226.015015 634.339539,1225.901001 
	C635.393005,1217.767334 636.446533,1209.633667 637.500000,1201.500000 
"/>
<path fill="none" opacity="1.000000" stroke="#000000" stroke-linecap="round" stroke-linejoin="round" stroke-width="2.000000"
	d="
M723.500000,1200.000000 
	C724.500000,1208.166626 725.500000,1216.333374 726.500000,1224.500000 
"/>
<path fill="none" opacity="1.000000" stroke="#000000" stroke-linecap="round" stroke-linejoin="round" stroke-width="2.000000"
	d="
M744.500000,1198.000000 
	C745.389282,1206.404419 745.928650,1214.864746 748.602051,1223.044067 
	C750.351929,1214.294556 746.351440,1205.701538 747.762817,1197.145630 
	C749.172974,1196.864868 750.327026,1196.635254 752.004578,1196.301270 
	C753.013184,1204.786255 754.006592,1213.143066 755.000000,1221.500000 
"/>
<path fill="none" opacity="1.000000" stroke="#000000" stroke-linecap="round" stroke-linejoin="round" stroke-width="2.000000"
	d="
M742.000000,1223.000000 
	C740.666748,1223.333496 739.333435,1223.666992 737.160522,1224.210571 
	C736.251343,1215.419678 734.505493,1206.839111 735.180115,1197.948486 
	C738.301331,1206.009033 738.211243,1214.628662 739.500000,1223.000000 
"/>
<path fill="none" opacity="1.000000" stroke="#000000" stroke-linecap="round" stroke-linejoin="round" stroke-width="2.000000"
	d="
M718.500000,1200.500000 
	C719.500000,1208.500000 720.500000,1216.500000 721.500000,1224.500000 
"/>
<path fill="none" opacity="1.000000" stroke="#000000" stroke-linecap="round" stroke-linejoin="round" stroke-width="2.000000"
	d="
M632.500000,1204.500000 
	C632.500000,1202.816650 632.500000,1201.133301 632.500000,1199.449951 
	C631.951660,1199.390381 631.403320,1199.330688 630.854919,1199.270996 
	C627.889038,1207.344482 628.490540,1216.131470 627.000000,1224.500000 
"/>
<path fill="none" opacity="1.000000" stroke="#000000" stroke-linecap="round" stroke-linejoin="round" stroke-width="2.000000"
	d="
M721.500000,1200.000000 
	C722.333313,1208.000000 723.166687,1216.000000 724.000000,1224.000000 
"/>
<path fill="none" opacity="1.000000" stroke="#000000" stroke-linecap="round" stroke-linejoin="round" stroke-width="2.000000"
	d="
M634.500000,1201.000000 
	C634.791992,1209.117188 632.036316,1216.916992 632.350464,1224.849121 
	C628.666687,1226.483887 625.333313,1224.200562 622.000000,1225.000000 
"/>
<path fill="none" opacity="1.000000" stroke="#000000" stroke-linecap="round" stroke-linejoin="round" stroke-width="2.000000"
	d="
M737.000000,1223.500000 
	C734.785156,1224.662842 732.207458,1223.285767 729.381775,1225.064575 
	C728.241882,1215.911133 727.161316,1207.234009 726.080688,1198.556763 
	C726.495422,1198.427856 726.910156,1198.298950 727.324890,1198.170044 
	C729.158081,1200.336792 729.414734,1203.077148 729.544434,1205.998047 
	C729.677979,1209.006836 730.095581,1212.010132 730.520447,1214.997070 
	C730.925415,1217.843994 731.500000,1220.666626 732.000000,1223.500000 
"/>
<path fill="none" opacity="1.000000" stroke="#000000" stroke-linecap="round" stroke-linejoin="round" stroke-width="2.000000"
	d="
M716.000000,1200.500000 
	C717.000000,1208.500000 718.000000,1216.500000 719.000000,1224.500000 
"/>
<path fill="none" opacity="1.000000" stroke="#000000" stroke-linecap="round" stroke-linejoin="round" stroke-width="2.000000"
	d="
M598.500000,1198.000000 
	C598.478882,1206.084595 596.642395,1213.980103 596.000000,1222.000000 
"/>
<path fill="none" opacity="1.000000" stroke="#000000" stroke-linecap="round" stroke-linejoin="round" stroke-width="2.000000"
	d="
M708.499939,1201.500000 
	C709.544617,1209.683472 710.589294,1217.867065 711.633301,1226.045166 
	C717.666809,1225.334717 723.333435,1224.667358 729.000000,1224.000000 
"/>
<path fill="none" opacity="1.000000" stroke="#000000" stroke-linecap="round" stroke-linejoin="round" stroke-width="2.000000"
	d="
M739.000000,1198.500000 
	C739.833313,1205.000000 740.895264,1211.481323 741.429138,1218.005737 
	C741.872314,1223.421387 741.596985,1223.443970 747.000000,1223.000000 
"/>
<path fill="none" opacity="1.000000" stroke="#000000" stroke-linecap="round" stroke-linejoin="round" stroke-width="2.000000"
	d="
M650.500000,695.000000 
	C648.093323,695.248352 646.842896,696.140564 646.912659,699.002136 
	C647.046509,704.494812 646.666687,710.000000 646.500000,715.500000 
"/>
<path fill="none" opacity="1.000000" stroke="#000000" stroke-linecap="round" stroke-linejoin="round" stroke-width="2.000000"
	d="
M708.500000,1177.500000 
	C708.582886,1184.485474 709.467896,1191.290527 713.000000,1197.500000 
"/>
<path fill="none" opacity="1.000000" stroke="#000000" stroke-linecap="round" stroke-linejoin="round" stroke-width="2.000000"
	d="
M737.500000,1174.500000 
	C737.812378,1180.897461 736.637695,1187.177490 736.000000,1193.500000 
"/>
<path fill="none" opacity="1.000000" stroke="#000000" stroke-linecap="round" stroke-linejoin="round" stroke-width="2.000000"
	d="
M621.500000,1180.500000 
	C621.712524,1186.645264 619.461304,1192.448364 619.131592,1199.042969 
	C622.709167,1198.688599 626.304932,1199.708374 630.000000,1200.000000 
"/>
<path fill="none" opacity="1.000000" stroke="#000000" stroke-linecap="round" stroke-linejoin="round" stroke-width="2.000000"
	d="
M591.500000,1177.500000 
	C590.902344,1180.124146 591.964233,1182.563110 592.563110,1184.984375 
	C593.999573,1190.791870 594.410950,1196.595581 593.500000,1202.500000 
"/>
<path fill="none" opacity="1.000000" stroke="#000000" stroke-linecap="round" stroke-linejoin="round" stroke-width="2.000000"
	d="
M754.500000,1176.500000 
	C754.094727,1182.648071 752.977661,1188.657715 751.000000,1194.500000 
"/>
<path fill="none" opacity="1.000000" stroke="#000000" stroke-linecap="round" stroke-linejoin="round" stroke-width="3.000000"
	d="
M619.500000,667.500000 
	C616.409973,668.454651 614.016541,665.968994 611.006287,665.845825 
	C606.444641,665.659119 605.280212,667.497131 606.000000,671.500000 
"/>
<path fill="none" opacity="1.000000" stroke="#000000" stroke-linecap="round" stroke-linejoin="round" stroke-width="2.000000"
	d="
M608.500000,1175.500000 
	C608.114319,1181.573853 609.169739,1187.527466 610.000000,1193.500000 
"/>
<path fill="none" opacity="1.000000" stroke="#000000" stroke-linecap="round" stroke-linejoin="round" stroke-width="2.000000"
	d="
M607.500000,671.500000 
	C604.552429,671.372681 604.798706,673.545410 604.465088,675.494019 
	C603.803467,679.358582 602.940918,683.188721 602.087769,687.396057 
	C607.661255,689.857605 613.946106,689.889404 619.990784,691.047974 
	C624.324524,691.878540 628.819763,691.870667 633.000000,693.500000 
"/>
<path fill="none" opacity="1.000000" stroke="#000000" stroke-linecap="round" stroke-linejoin="round" stroke-width="2.000000"
	d="
M636.500000,1184.500000 
	C636.541565,1189.158569 635.530945,1193.533936 633.000000,1197.500000 
"/>
<path fill="none" opacity="1.000000" stroke="#000000" stroke-linecap="round" stroke-linejoin="round" stroke-width="2.000000"
	d="
M625.500000,1211.500000 
	C626.245972,1215.916382 623.953796,1220.098999 624.500000,1224.500000 
"/>
<path fill="none" opacity="1.000000" stroke="#000000" stroke-linecap="round" stroke-linejoin="round" stroke-width="2.000000"
	d="
M614.500000,1199.500000 
	C614.244507,1203.506470 612.941040,1207.425659 613.500000,1211.500000 
"/>
<path fill="none" opacity="1.000000" stroke="#000000" stroke-linecap="round" stroke-linejoin="round" stroke-width="2.000000"
	d="
M599.500000,1210.500000 
	C600.058960,1214.574341 598.755493,1218.493530 598.500000,1222.500000 
"/>
<path fill="none" opacity="1.000000" stroke="#000000" stroke-linecap="round" stroke-linejoin="round" stroke-width="2.000000"
	d="
M630.500000,1213.500000 
	C631.013611,1217.406982 629.899658,1221.172485 629.500000,1225.000000 
"/>
<path fill="none" opacity="1.000000" stroke="#000000" stroke-linecap="round" stroke-linejoin="round" stroke-width="2.000000"
	d="
M751.500000,1210.500000 
	C750.772034,1214.425659 752.707092,1218.119629 752.500000,1222.000000 
"/>
<path fill="none" opacity="1.000000" stroke="#000000" stroke-linecap="round" stroke-linejoin="round" stroke-width="2.000000"
	d="
M749.500000,1197.500000 
	C749.417236,1201.204468 751.216797,1204.737915 750.500000,1208.500000 
"/>
<path fill="none" opacity="1.000000" stroke="#000000" stroke-linecap="round" stroke-linejoin="round" stroke-width="3.000000"
	d="
M665.500000,695.500000 
	C661.331299,695.997986 658.764404,698.097717 658.500000,702.500000 
"/>
<path fill="none" opacity="1.000000" stroke="#000000" stroke-linecap="round" stroke-linejoin="round" stroke-width="2.000000"
	d="
M719.500000,693.000000 
	C719.960205,696.654236 722.652100,699.670837 722.500000,703.500000 
"/>
<path fill="none" opacity="1.000000" stroke="#000000" stroke-linecap="round" stroke-linejoin="round" stroke-width="2.000000"
	d="
M591.500000,1211.500000 
	C591.450073,1215.026978 591.813721,1218.593384 590.500000,1222.000000 
"/>
<path fill="none" opacity="1.000000" stroke="#000000" stroke-linecap="round" stroke-linejoin="round" stroke-width="2.000000"
	d="
M725.500000,1187.500000 
	C725.259644,1191.105713 726.119934,1194.554321 727.000000,1198.000000 
"/>
<path fill="none" opacity="1.000000" stroke="#000000" stroke-linecap="round" stroke-linejoin="round" stroke-width="2.000000"
	d="
M726.000000,692.000000 
	C726.487000,695.168701 727.701233,698.222595 727.500000,701.500000 
"/>
<path fill="none" opacity="1.000000" stroke="#000000" stroke-linecap="round" stroke-linejoin="round" stroke-width="2.000000"
	d="
M707.000000,694.500000 
	C707.704529,697.535767 709.600525,700.240601 709.500000,703.500000 
"/>
<path fill="none" opacity="1.000000" stroke="#000000" stroke-linecap="round" stroke-linejoin="round" stroke-width="2.000000"
	d="
M619.499939,692.000000 
	C619.166626,694.833313 618.833313,697.666687 618.499939,700.500000 
"/>
<path fill="none" opacity="1.000000" stroke="#000000" stroke-linecap="round" stroke-linejoin="round" stroke-width="2.000000"
	d="
M743.500000,688.000000 
	C741.329102,689.235107 738.417786,687.878967 736.500000,690.000000 
"/>
<path fill="none" opacity="1.000000" stroke="#000000" stroke-linecap="round" stroke-linejoin="round" stroke-width="5.000000"
	d="
M665.999939,682.000000 
	C666.166626,682.833313 666.166748,684.306335 666.526001,684.399963 
	C669.733643,685.235352 670.843628,688.577820 673.500000,690.000000 
"/>
<path fill="none" opacity="1.000000" stroke="#000000" stroke-linecap="round" stroke-linejoin="round" stroke-width="2.000000"
	d="
M626.500061,693.000000 
	C625.833374,695.166687 625.166687,697.333374 624.500061,699.500000 
"/>
<path fill="none" opacity="1.000000" stroke="#000000" stroke-linecap="round" stroke-linejoin="round" stroke-width="4.000000"
	d="
M679.500000,679.500000 
	C679.779114,680.819275 678.737427,682.303650 680.207642,683.262573 
	C677.970642,685.803955 674.469116,686.635803 673.500000,690.000000 
"/>
<path fill="none" opacity="1.000000" stroke="#000000" stroke-linecap="round" stroke-linejoin="round" stroke-width="2.000000"
	d="
M666.000000,818.000000 
	C668.166687,819.000000 670.333313,820.000000 672.500000,821.000000 
"/>
<path fill="none" opacity="1.000000" stroke="#000000" stroke-linecap="round" stroke-linejoin="round" stroke-width="2.000000"
	d="
M614.500000,1217.500000 
	C614.266357,1219.494385 615.049255,1221.573486 614.000000,1223.500000 
"/>
<path fill="none" opacity="1.000000" stroke="#000000" stroke-linecap="round" stroke-linejoin="round" stroke-width="3.000000"
	d="
M736.499939,691.500000 
	C736.356384,690.828552 736.212769,690.157104 736.105591,689.655701 
	C723.515747,691.444885 710.995667,693.143372 698.510437,695.067749 
	C696.053589,695.446472 694.620483,694.251953 693.259705,692.836792 
	C689.534546,697.339478 684.956360,696.115234 680.500000,695.500000 
"/>
<path fill="none" opacity="1.000000" stroke="#000000" stroke-linecap="round" stroke-linejoin="round" stroke-width="2.000000"
	d="
M607.000000,1198.500000 
	C605.950745,1200.426514 606.733643,1202.505615 606.500000,1204.500000 
"/>
<path fill="none" opacity="1.000000" stroke="#000000" stroke-linecap="round" stroke-linejoin="round" stroke-width="2.000000"
	d="
M630.500000,1191.500000 
	C630.155334,1193.711182 631.511902,1195.497070 632.000000,1197.500000 
"/>
<path fill="none" opacity="1.000000" stroke="#000000" stroke-linecap="round" stroke-linejoin="round" stroke-width="2.000000"
	d="
M601.500000,1216.500000 
	C601.266357,1218.494385 602.049255,1220.573486 601.000000,1222.500000 
"/>
<path fill="none" opacity="1.000000" stroke="#000000" stroke-linecap="round" stroke-linejoin="round" stroke-width="2.000000"
	d="
M619.500000,1218.500000 
	C619.500000,1220.679077 619.500000,1222.858154 619.500000,1224.933960 
	C622.376404,1225.292480 621.230652,1223.471680 621.500000,1222.500000 
"/>
<path fill="none" opacity="1.000000" stroke="#000000" stroke-linecap="round" stroke-linejoin="round" stroke-width="2.000000"
	d="
M705.000000,1201.500000 
	C707.264221,1199.223511 710.760071,1201.873657 713.500000,1198.850220 
	C713.500000,1201.486206 713.500000,1203.493164 713.500000,1205.500000 
"/>
<path fill="none" opacity="1.000000" stroke="#000000" stroke-linecap="round" stroke-linejoin="round" stroke-width="2.000000"
	d="
M606.500000,1217.500000 
	C606.500000,1219.506836 606.500000,1221.513794 606.500000,1223.761841 
	C610.978882,1224.026367 614.989441,1224.263184 619.000000,1224.500000 
"/>
<path fill="none" opacity="1.000000" stroke="#000000" stroke-linecap="round" stroke-linejoin="round" stroke-width="2.000000"
	d="
M611.500000,1194.000000 
	C609.573608,1194.286865 609.518555,1196.345947 610.094971,1196.901489 
	C612.491638,1199.211182 611.089111,1201.982178 611.500000,1204.500000 
"/>
<path fill="none" opacity="1.000000" stroke="#000000" stroke-linecap="round" stroke-linejoin="round" stroke-width="2.000000"
	d="
M612.000000,1198.000000 
	C614.190552,1197.856445 616.227722,1199.705933 618.756592,1198.686279 
	C620.389404,1200.240601 619.143311,1202.503906 619.500000,1204.500000 
"/>
<path fill="none" opacity="1.000000" stroke="#000000" stroke-linecap="round" stroke-linejoin="round" stroke-width="2.000000"
	d="
M646.500000,695.000000 
	C642.503845,693.267578 637.966797,694.915833 633.982056,692.665955 
	C632.977539,694.747375 631.578430,696.323547 631.500000,698.500000 
"/>
<path fill="none" opacity="1.000000" stroke="#000000" stroke-linecap="round" stroke-linejoin="round" stroke-width="2.000000"
	d="
M744.500000,1217.500000 
	C744.770142,1219.156372 743.941284,1220.922485 745.000000,1222.500000 
"/>
<path fill="none" opacity="1.000000" stroke="#000000" stroke-linecap="round" stroke-linejoin="round" stroke-width="2.000000"
	d="
M731.500000,1199.500000 
	C731.500000,1201.166626 731.500000,1202.833374 731.500000,1204.500000 
"/>
<path fill="none" opacity="1.000000" stroke="#000000" stroke-linecap="round" stroke-linejoin="round" stroke-width="2.000000"
	d="
M624.500000,1200.000000 
	C624.500000,1201.500000 624.500000,1203.000000 624.500000,1204.500000 
"/>
<path fill="none" opacity="1.000000" stroke="#000000" stroke-linecap="round" stroke-linejoin="round" stroke-width="2.000000"
	d="
M638.499939,695.000000 
	C638.166626,696.500000 637.833313,698.000000 637.499939,699.500000 
"/>
<path fill="none" opacity="1.000000" stroke="#000000" stroke-linecap="round" stroke-linejoin="round" stroke-width="2.000000"
	d="
M668.500000,698.500000 
	C668.521973,697.070190 668.178040,695.041016 670.483215,695.572693 
	C673.885742,696.357178 670.992676,698.868103 671.500000,700.500000 
"/>
<path fill="none" opacity="1.000000" stroke="#000000" stroke-linecap="round" stroke-linejoin="round" stroke-width="3.000000"
	d="
M734.500000,1194.000000 
	C736.667419,1194.452026 735.827881,1196.192871 736.022949,1197.630981 
	C739.833313,1199.072754 743.666687,1195.843872 747.500000,1197.500000 
"/>
<path fill="none" opacity="1.000000" stroke="#000000" stroke-linecap="round" stroke-linejoin="round" stroke-width="2.000000"
	d="
M597.500000,1190.500000 
	C597.819580,1192.140625 596.467896,1193.154663 596.000000,1194.500000 
"/>
<path fill="none" opacity="1.000000" stroke="#000000" stroke-linecap="round" stroke-linejoin="round" stroke-width="2.000000"
	d="
M608.500000,678.500000 
	C607.179382,678.231812 605.721924,679.057983 604.500000,678.000000 
"/>
<path fill="none" opacity="1.000000" stroke="#000000" stroke-linecap="round" stroke-linejoin="round" stroke-width="2.000000"
	d="
M658.500000,696.000000 
	C656.050415,695.047363 653.937988,694.634094 654.500000,698.500000 
"/>
<path fill="none" opacity="1.000000" stroke="#000000" stroke-linecap="round" stroke-linejoin="round" stroke-width="2.000000"
	d="
M601.500000,1198.000000 
	C601.500000,1199.166626 601.500000,1200.333374 601.500000,1201.500000 
"/>
<path fill="none" opacity="1.000000" stroke="#000000" stroke-linecap="round" stroke-linejoin="round" stroke-width="2.000000"
	d="
M741.000000,678.500000 
	C739.833313,678.500000 738.666687,678.500000 737.500000,678.500000 
"/>
<path fill="none" opacity="1.000000" stroke="#000000" stroke-linecap="round" stroke-linejoin="round" stroke-width="3.000000"
	d="
M725.500000,1199.000000 
	C721.641296,1198.583740 717.882996,1200.475708 714.000000,1199.500000 
"/>
<path fill="none" opacity="1.000000" stroke="#000000" stroke-linecap="round" stroke-linejoin="round" stroke-width="2.000000"
	d="
M734.000000,1198.000000 
	C732.333313,1198.166748 730.666687,1198.333374 729.000000,1198.500000 
"/>
<path fill="none" opacity="1.000000" stroke="#000000" stroke-linecap="round" stroke-linejoin="round" stroke-width="2.000000"
	d="
M596.500000,1196.000000 
	C597.617432,1198.330811 599.898438,1196.806030 601.561279,1197.288940 
	C603.084839,1197.731323 604.663696,1197.087769 604.500000,1199.500000 
"/>
<path fill="none" opacity="1.000000" stroke="#000000" stroke-linecap="round" stroke-linejoin="round" stroke-width="3.000000"
	d="
M674.000000,694.000000 
	C675.721802,695.068237 678.046265,695.667725 677.500000,698.500000 
"/>
</svg>