<svg xmlns="http://www.w3.org/2000/svg" xmlns:xlink="http://www.w3.org/1999/xlink" xml:space="preserve" version="1.1" style="shape-rendering:geometricPrecision;text-rendering:geometricPrecision;image-rendering:optimizeQuality;" viewBox="0 0 96000 120000" x="0px" y="0px" fill-rule="evenodd" clip-rule="evenodd"><defs><style type="text/css">
   
    .fil0 {fill:black}
   
  </style></defs><g><path class="fil0" d="M27280 87870c1760,-20 3520,10 5280,0 800,0 900,90 900,850l0 1370c0,540 -440,980 -990,980l-5150 0c-480,0 -860,-390 -860,-870l0 -1480c0,-740 100,-840 820,-850z"/><path class="fil0" d="M63810 87870l5330 0c770,10 820,60 820,840l0 1380c0,540 -440,980 -980,980l-5150 0c-480,0 -870,-390 -870,-870l0 -1490c10,-780 80,-840 850,-840z"/><path class="fil0" d="M34840 8250c1090,180 2390,330 3850,450 1650,140 3520,250 5520,310 180,0 360,10 540,10 520,10 610,130 400,670 -60,150 -130,290 -180,440 -1310,3740 1520,7810 1530,7820 310,450 930,560 1380,250 450,-310 570,-930 250,-1380 0,0 -2170,-3090 -1310,-5860 50,-190 120,-380 210,-560 310,-610 620,-620 1050,-30 100,140 190,310 290,500 750,1480 1430,4250 1000,9350 -50,550 360,1030 910,1070 550,50 1040,-360 1080,-910 440,-5150 -300,-8310 -1220,-10220 -80,-170 -170,-320 -250,-480 -270,-510 -210,-630 390,-640 200,-10 400,-10 600,-10 2200,-50 4260,-160 6080,-310 1420,-110 2700,-270 3790,-430 1650,-240 2050,-110 2490,1390 160,530 310,1060 460,1600 2960,10480 5430,20350 7070,30220 1860,11190 2680,22390 2010,34490 -50,890 -110,1830 -170,2810 -120,1680 -240,3460 -430,5130 -160,1450 -840,1940 -2270,1940l-6630 0c-1710,0 -2470,-480 -2950,-2110 -520,-1740 -990,-3550 -1470,-5300 -260,-990 -500,-1860 -680,-2560 -2030,-7930 -3770,-15950 -5130,-24060 -1350,-8080 -2330,-16240 -2840,-24450 -80,-1250 -1090,-2270 -2360,-2270 -1270,0 -2290,1020 -2350,2290 -340,7520 -1200,15550 -2450,23650 -1300,8480 -3040,17020 -5070,25100l-640 2490c-410,1600 -880,3550 -1390,5120 -570,1760 -1380,2100 -3180,2100l-6210 0c-1550,0 -2030,-410 -2250,-1940 -350,-2500 -600,-5010 -790,-7520 -960,-11830 -650,-25350 1150,-38220 1340,-9570 3510,-18770 6590,-26630 250,-640 500,-1270 770,-1890 610,-1410 1080,-1700 2810,-1420z"/><path class="fil0" d="M56560 5240c-2480,-200 -5450,-310 -8640,-310 -3350,0 -6460,130 -9030,340 -6260,530 -6240,900 -40,1440 2580,220 5700,350 9070,350 3290,0 6340,-120 8880,-330 6100,-580 6100,-990 -240,-1490z"/></g><text x="0" y="96015" fill="#000000" font-size="5px" font-weight="bold" font-family="'Helvetica Neue', Helvetica, Arial-Unicode, Arial, Sans-serif"></text><text x="0" y="96020" fill="#000000" font-size="5px" font-weight="bold" font-family="'Helvetica Neue', Helvetica, Arial-Unicode, Arial, Sans-serif"></text></svg>